<svg width="32" height="32" fill="none" xmlns="http://www.w3.org/2000/svg"><path d="M17.167 25.333h-10.5A2.666 2.666 0 014 22.667v-16A2.666 2.666 0 016.667 4h12a2.666 2.666 0 012.666 2.667" stroke="url(#paint0_linear)" stroke-width="1.5" stroke-linecap="round" stroke-linejoin="round"/><path d="M21.334 6.667v4M12.665 21.11a.223.223 0 10.224.223c0-.122-.1-.222-.224-.222" stroke="#00E7F9" stroke-width="1.5" stroke-linecap="round" stroke-linejoin="round"/><path clip-rule="evenodd" d="M19.834 10.667h5.5A2.666 2.666 0 0128 13.333v12A2.666 2.666 0 0125.334 28h-5.5a2.666 2.666 0 01-2.667-2.667v-12a2.666 2.666 0 012.667-2.666z" stroke="url(#paint1_linear)" stroke-width="1.5" stroke-linecap="round" stroke-linejoin="round"/><path d="M21.413 25h2.333" stroke="#00E7F9" stroke-width="1.5" stroke-linecap="round" stroke-linejoin="round"/><defs><linearGradient id="paint0_linear" x1="17.333" y1="24" x2="10.697" y2="15.458" gradientUnits="userSpaceOnUse"><stop stop-color="#00E7F9" stop-opacity="0"/><stop offset="1" stop-color="#00E7F9"/></linearGradient><linearGradient id="paint1_linear" x1="23.334" y1="32.667" x2="26.043" y2="16.453" gradientUnits="userSpaceOnUse"><stop stop-color="#00E7F9" stop-opacity="0"/><stop offset="1" stop-color="#00E7F9"/></linearGradient></defs></svg>