<svg width="121" height="31" fill="none" xmlns="http://www.w3.org/2000/svg"><g clip-path="url(#clip0)" fill="#fff"><path d="M37.104 9.211V2.803h1.81c.557 0 1.05.123 1.478.37.428.246.758.597.99 1.051.235.455.354.977.357 1.567v.41c0 .604-.118 1.134-.352 1.588a2.444 2.444 0 01-1 1.048c-.43.243-.934.368-1.51.374h-1.773zm.845-5.713V8.52h.89c.65 0 1.157-.202 1.518-.607.364-.405.546-.982.546-1.73v-.374c0-.728-.172-1.293-.515-1.695-.34-.405-.825-.61-1.453-.616h-.986zm4.727 3.288c0-.467.091-.886.273-1.259.185-.373.44-.66.766-.863a2.096 2.096 0 011.122-.303c.649 0 1.173.224 1.572.673.402.45.603 1.046.603 1.792v.057c0 .463-.09.88-.269 1.25-.176.367-.43.653-.761.858a2.097 2.097 0 01-1.136.308c-.645 0-1.17-.224-1.571-.673-.4-.45-.599-1.043-.599-1.783v-.057zm.819.097c0 .528.122.952.365 1.272.247.32.575.48.986.48.414 0 .743-.162.986-.485.244-.325.365-.78.365-1.364 0-.522-.124-.945-.374-1.268a1.175 1.175 0 00-.986-.488c-.402 0-.726.16-.972.48-.247.32-.37.777-.37 1.373zm8.754 1.206l.916-3.64h.814L52.593 9.21h-.66L50.775 5.6l-1.127 3.61h-.66l-1.382-4.76h.81l.937 3.565 1.11-3.565h.655l1.131 3.64zm3.332-3.64l.026.598c.364-.457.84-.686 1.427-.686 1.006 0 1.514.568 1.522 1.703v3.147h-.814V6.06c-.003-.344-.082-.597-.237-.762-.153-.164-.392-.246-.718-.246-.264 0-.496.07-.695.211-.2.14-.355.326-.467.555V9.21h-.814V4.45h.77zM60.67 9.21h-.814V2.45h.814v6.76zm1.092-2.425c0-.467.09-.886.272-1.259.185-.373.44-.66.766-.863a2.096 2.096 0 011.123-.303c.648 0 1.172.224 1.571.673.402.45.603 1.046.603 1.792v.057c0 .463-.09.88-.269 1.25-.176.367-.43.653-.76.858a2.098 2.098 0 01-1.136.308c-.646 0-1.17-.224-1.572-.673-.399-.45-.598-1.043-.598-1.783v-.057zm.818.097c0 .528.122.952.366 1.272.246.32.575.48.986.48.413 0 .742-.162.985-.485.244-.325.366-.78.366-1.364 0-.522-.125-.945-.374-1.268a1.175 1.175 0 00-.986-.488c-.402 0-.726.16-.973.48-.246.32-.37.777-.37 1.373zm7.478 2.328c-.047-.094-.085-.261-.114-.502-.379.393-.83.59-1.356.59-.47 0-.855-.132-1.157-.396a1.298 1.298 0 01-.45-1.012c0-.496.188-.88.564-1.154.379-.275.91-.413 1.593-.413h.793V5.95c0-.285-.086-.51-.256-.678-.17-.17-.42-.255-.752-.255-.29 0-.534.073-.731.22-.197.146-.295.324-.295.532h-.819c0-.237.084-.466.251-.686.17-.223.4-.4.687-.529.29-.129.609-.193.955-.193.549 0 .979.138 1.29.413.31.273.472.65.484 1.132v2.192c0 .437.056.784.167 1.043v.07h-.854zm-1.351-.62c.255 0 .497-.067.726-.199a1.19 1.19 0 00.498-.515V6.9h-.639c-.997 0-1.496.292-1.496.876 0 .255.085.455.255.599.17.144.389.215.656.215zm3.116-1.8c0-.731.173-1.318.52-1.761a1.64 1.64 0 011.36-.67c.557 0 .999.191 1.324.573V2.45h.815v6.76h-.749l-.04-.51c-.325.399-.778.598-1.36.598-.55 0-1.001-.226-1.35-.678-.347-.452-.52-1.041-.52-1.77v-.06zm.814.092c0 .54.112.962.335 1.267.223.305.531.458.924.458.517 0 .894-.232 1.131-.695V5.725c-.243-.449-.617-.673-1.122-.673-.4 0-.71.154-.933.462-.223.308-.335.764-.335 1.369zm8.28 1.223l1.179-3.657h.832L81.219 9.21h-.62l-1.726-4.76h.832l1.21 3.657zm3.679 1.105h-.814V4.45h.814v4.76zm-.88-6.025c0-.132.04-.244.118-.335.083-.09.203-.136.361-.136.159 0 .28.045.361.136a.48.48 0 01.123.335.465.465 0 01-.123.33c-.082.088-.202.132-.36.132-.16 0-.28-.044-.361-.132a.475.475 0 01-.12-.33zm5.127 6.025c-.047-.094-.085-.261-.114-.502-.379.393-.83.59-1.356.59-.47 0-.855-.132-1.157-.396a1.298 1.298 0 01-.45-1.012c0-.496.189-.88.564-1.154.379-.275.91-.413 1.593-.413h.793V5.95c0-.285-.086-.51-.256-.678-.17-.17-.42-.255-.752-.255-.29 0-.534.073-.731.22-.197.146-.295.324-.295.532h-.819c0-.237.084-.466.251-.686.17-.223.4-.4.687-.529.29-.129.609-.193.955-.193.549 0 .979.138 1.29.413.31.273.472.65.484 1.132v2.192c0 .437.056.784.167 1.043v.07h-.854zm-1.351-.62c.255 0 .497-.067.726-.199a1.19 1.19 0 00.498-.515V6.9h-.639c-.997 0-1.496.292-1.496.876 0 .255.085.455.255.599.17.144.389.215.656.215z"/><path fill-rule="evenodd" clip-rule="evenodd" d="M80.654 25.866c-1.827 0-3.164-.89-3.318-2.244H75.21c.134 2.47 2.212 4.032 5.29 4.032 3.29 0 5.358-1.6 5.358-4.154 0-1.997-1.183-3.122-4.031-3.785l-1.53-.37c-1.788-.434-2.52-1.002-2.52-1.967 0-1.212 1.146-2.044 2.819-2.044s2.818.823 2.944 2.185h2.096c-.067-2.355-2.078-3.973-5.01-3.973-2.964 0-5.05 1.618-5.05 3.973 0 1.903 1.182 3.076 3.73 3.681l1.8.426c1.798.435 2.558 1.07 2.558 2.13 0 1.22-1.26 2.11-3.01 2.11zm-36.186-2.13h-5.29l-1.27 3.69h-2.241l5.01-13.653h2.329l5.01 13.654h-2.278l-1.27-3.69zm-4.742-1.703h4.193l-2.067-5.989h-.058l-2.068 5.99zm14.89 5.498c2.54 0 4.222-1.988 4.222-5.081 0-3.085-1.693-5.082-4.26-5.082a3.602 3.602 0 00-3.223 1.76h-.038v-1.656h-2.01V30.72h2.077v-4.93h.048a3.442 3.442 0 003.183 1.74zm2.087-5.08c0-2.016-1.058-3.341-2.674-3.341-1.587 0-2.654 1.353-2.654 3.34 0 2.006 1.067 3.35 2.654 3.35 1.616 0 2.674-1.316 2.674-3.35zm9.05 5.08c2.54 0 4.222-1.988 4.222-5.081 0-3.085-1.693-5.082-4.26-5.082a3.602 3.602 0 00-3.223 1.76h-.038v-1.656h-2.01V30.72h2.077v-4.93h.048a3.443 3.443 0 003.183 1.74zm2.087-5.08c0-2.016-1.059-3.341-2.674-3.341-1.587 0-2.654 1.353-2.654 3.34 0 2.006 1.067 3.35 2.654 3.35 1.615 0 2.674-1.316 2.674-3.35zm22.5-7.334v2.355h1.924v1.618H90.34v5.488c0 .853.385 1.25 1.231 1.25.229-.004.457-.02.684-.047v1.608c-.38.07-.767.102-1.154.095-2.049 0-2.848-.757-2.848-2.688V19.09h-1.47v-1.618h1.47v-2.355h2.087zm7.838 2.233c-2.924 0-4.8 1.968-4.8 5.1 0 3.14 1.857 5.1 4.8 5.1 2.944 0 4.8-1.96 4.8-5.1 0-3.132-1.866-5.1-4.8-5.1zm2.684 5.1c0-2.148-1.001-3.416-2.684-3.416-1.683 0-2.683 1.277-2.683 3.416 0 2.157 1 3.416 2.683 3.416 1.683 0 2.684-1.259 2.684-3.416zm5.809-4.978h-1.981v9.955h2.077v-5.905a2.04 2.04 0 01.547-1.635 2.11 2.11 0 011.618-.655c.316-.01.631.033.933.123v-1.91a3.25 3.25 0 00-.712-.077 2.41 2.41 0 00-2.434 1.799h-.048v-1.695zm12.77 7.031c-.279 1.807-2.068 3.047-4.357 3.047-2.943 0-4.77-1.94-4.77-5.053 0-3.122 1.836-5.147 4.683-5.147 2.799 0 4.56 1.892 4.56 4.91v.7h-7.147v.124a2.57 2.57 0 00.714 2.014c.521.54 1.252.833 2.008.805a2.294 2.294 0 002.337-1.4h1.972zm-1.962-2.971h-5.059a2.502 2.502 0 01.753-1.791 2.585 2.585 0 011.824-.735 2.454 2.454 0 011.802.73c.471.479.718 1.13.68 1.796zM17.861 1.598c-1.466.06-3.243.973-4.295 2.2-.945 1.09-1.77 2.83-1.548 4.497 1.637.127 3.306-.829 4.325-2.057 1.017-1.23 1.706-2.936 1.518-4.64zm-.414 29.019c1.987-.037 3.246-1.798 4.462-3.569 1.334-1.94 1.922-3.822 2.01-4.102l.01-.032-.007-.003c-.191-.077-3.87-1.567-3.906-5.873-.036-3.556 2.81-5.325 3.124-5.52.011-.006.019-.01.023-.014-1.713-2.496-4.38-2.838-5.332-2.877-1.388-.14-2.735.389-3.836.82-.7.275-1.3.51-1.747.51-.498 0-1.115-.243-1.807-.517-.905-.358-1.94-.767-3.007-.747-2.474.037-4.757 1.434-6.03 3.643-2.573 4.446-.66 11.036 1.846 14.641 1.226 1.764 2.685 3.748 4.604 3.677.856-.035 1.466-.293 2.096-.56.729-.31 1.485-.63 2.683-.63 1.14 0 1.862.31 2.556.61.663.286 1.302.56 2.258.543z"/></g><defs><clipPath id="clip0"><path fill="#fff" d="M0 0h120.366v30.732H0z"/></clipPath></defs></svg>