<svg width="32" height="32" fill="none" xmlns="http://www.w3.org/2000/svg"><path clip-rule="evenodd" d="M25.333 28H6.667A2.666 2.666 0 014 25.333V6.667A2.666 2.666 0 016.667 4h18.666A2.666 2.666 0 0128 6.667v18.666A2.666 2.666 0 0125.333 28z" stroke="url(#paint0_linear)" stroke-width="1.5" stroke-linecap="round" stroke-linejoin="round"/><path d="M16 17.667v-.334c0-1.089.673-1.68 1.348-2.133.658-.444 1.318-1.023 1.318-2.09a2.666 2.666 0 10-5.333 0" stroke="url(#paint1_linear)" stroke-width="1.5" stroke-linecap="round" stroke-linejoin="round"/><path d="M15.998 21.333a.333.333 0 10.003.666.333.333 0 00-.003-.666" stroke="url(#paint2_linear)" stroke-width="1.5" stroke-linecap="round" stroke-linejoin="round"/><defs><linearGradient id="paint0_linear" x1="18.117" y1="34.743" x2="22.882" y2="5.592" gradientUnits="userSpaceOnUse"><stop stop-color="#00E7F9" stop-opacity="0"/><stop offset="1" stop-color="#00E7F9"/></linearGradient><linearGradient id="paint1_linear" x1="16.47" y1="19.696" x2="18.371" y2="11.109" gradientUnits="userSpaceOnUse"><stop stop-color="#00E7F9" stop-opacity="0"/><stop offset="1" stop-color="#00E7F9"/></linearGradient><linearGradient id="paint2_linear" x1="16.117" y1="22.708" x2="16.382" y2="21.088" gradientUnits="userSpaceOnUse"><stop stop-color="#00E7F9" stop-opacity="0"/><stop offset="1" stop-color="#00E7F9"/></linearGradient></defs></svg>