<svg width="113" height="28" fill="none" xmlns="http://www.w3.org/2000/svg"><g clip-path="url(#clip0)"><path d="M23.562 1H3.927C2.3 1 .98 2.343.98 4v20c0 1.657 1.32 3 2.946 3h19.635c1.627 0 2.945-1.343 2.945-3V4c0-1.657-1.318-3-2.945-3z" stroke="url(#paint0_linear)" stroke-width="2" stroke-linecap="round" stroke-linejoin="round"/><path opacity=".8" d="M17.38 21h2.758v-6.912h7.846v-2.472h-7.846V7.464h8.01V4.992H17.382V21zM31.767 7.488c.849 0 1.532-.696 1.532-1.56 0-.864-.683-1.56-1.532-1.56-.824 0-1.531.696-1.531 1.56 0 .864.707 1.56 1.531 1.56zM30.541 21h2.474V9.408h-2.474V21zm13.365 0h2.474v-8.16c0-2.376-1.225-3.72-3.676-3.72-1.79 0-3.251.96-4.005 1.872V9.408h-2.474V21h2.474v-8.088c.565-.792 1.649-1.56 2.921-1.56 1.39 0 2.286.6 2.286 2.4V21z" fill="#fff"/><path d="M49.59 21h2.993v-1.488c.896 1.152 2.144 1.776 3.511 1.776 2.875 0 5.042-2.208 5.042-6.072 0-3.792-2.144-6.096-5.042-6.096-1.343 0-2.615.6-3.51 1.776V4.992H49.59V21zm2.993-3.72v-4.104c.495-.768 1.602-1.344 2.569-1.344 1.743 0 2.898 1.368 2.898 3.384s-1.155 3.36-2.898 3.36c-.967 0-2.074-.552-2.569-1.296zm16.092 4.008c3.77 0 6.032-2.784 6.032-6.096 0-3.288-2.262-6.072-6.032-6.072-3.746 0-6.008 2.784-6.008 6.072 0 3.312 2.261 6.096 6.008 6.096zm0-2.712c-1.861 0-2.898-1.56-2.898-3.384 0-1.8 1.037-3.36 2.898-3.36 1.861 0 2.922 1.56 2.922 3.36 0 1.824-1.06 3.384-2.922 3.384zm13.53 2.712c3.77 0 6.032-2.784 6.032-6.096 0-3.288-2.262-6.072-6.032-6.072-3.746 0-6.008 2.784-6.008 6.072 0 3.312 2.261 6.096 6.008 6.096zm0-2.712c-1.861 0-2.898-1.56-2.898-3.384 0-1.8 1.037-3.36 2.898-3.36 1.861 0 2.922 1.56 2.922 3.36 0 1.824-1.06 3.384-2.922 3.384zM97.832 21h3.746l-4.642-6.336 4.501-5.256h-3.676l-4.312 5.16V4.992h-2.992V21h2.992v-2.976l1.367-1.488L97.832 21zm4.084-1.512c1.202 1.128 3.11 1.8 5.09 1.8 3.157 0 4.924-1.608 4.924-3.72 0-2.88-2.615-3.408-4.571-3.792-1.272-.264-2.168-.528-2.168-1.248 0-.672.707-1.08 1.791-1.08 1.39 0 2.686.6 3.369 1.344l1.202-2.088c-1.131-.912-2.662-1.584-4.595-1.584-2.992 0-4.665 1.704-4.665 3.648 0 2.76 2.521 3.24 4.477 3.624 1.296.264 2.285.552 2.285 1.368 0 .72-.612 1.176-1.908 1.176-1.414 0-3.11-.792-3.935-1.584l-1.296 2.136z" fill="#00E7F9"/></g><defs><linearGradient id="paint0_linear" x1="-1.528" y1="26.667" x2="24.703" y2="14.338" gradientUnits="userSpaceOnUse"><stop stop-color="#0093DC"/><stop offset="1" stop-color="#00E7F9" stop-opacity="0"/></linearGradient><clipPath id="clip0"><path fill="#fff" d="M0 0h112.903v28H0z"/></clipPath></defs></svg>