<svg width="115" height="28" viewBox="0 0 115 28" fill="none" xmlns="http://www.w3.org/2000/svg">
<rect x="1" y="1" width="26" height="26" rx="3" stroke="url(#paint0_linear)" stroke-width="2" stroke-linecap="round" stroke-linejoin="round"/>
<path opacity="0.8" d="M17.704 21H20.512V14.088H28.504V11.616H20.512V7.464H28.672V4.992H17.704V21ZM32.3566 7.488C33.2206 7.488 33.9166 6.792 33.9166 5.928C33.9166 5.064 33.2206 4.368 32.3566 4.368C31.5166 4.368 30.7966 5.064 30.7966 5.928C30.7966 6.792 31.5166 7.488 32.3566 7.488ZM31.1086 21H33.6286V9.408H31.1086V21ZM44.7216 21H47.2416V12.84C47.2416 10.464 45.9936 9.12 43.4976 9.12C41.6736 9.12 40.1856 10.08 39.4176 10.992V9.408H36.8976V21H39.4176V12.912C39.9936 12.12 41.0976 11.352 42.3936 11.352C43.8096 11.352 44.7216 11.952 44.7216 13.752V21Z" fill="white"/>
<path d="M50.512 21H53.56V19.512C54.472 20.664 55.744 21.288 57.136 21.288C60.064 21.288 62.272 19.08 62.272 15.216C62.272 11.424 60.088 9.12 57.136 9.12C55.768 9.12 54.472 9.72 53.56 10.896V4.992H50.512V21ZM53.56 17.28V13.176C54.064 12.408 55.192 11.832 56.176 11.832C57.952 11.832 59.128 13.2 59.128 15.216C59.128 17.232 57.952 18.576 56.176 18.576C55.192 18.576 54.064 18.024 53.56 17.28ZM69.9505 21.288C73.7905 21.288 76.0945 18.504 76.0945 15.192C76.0945 11.904 73.7905 9.12 69.9505 9.12C66.1345 9.12 63.8305 11.904 63.8305 15.192C63.8305 18.504 66.1345 21.288 69.9505 21.288ZM69.9505 18.576C68.0545 18.576 66.9985 17.016 66.9985 15.192C66.9985 13.392 68.0545 11.832 69.9505 11.832C71.8465 11.832 72.9265 13.392 72.9265 15.192C72.9265 17.016 71.8465 18.576 69.9505 18.576ZM83.7318 21.288C87.5718 21.288 89.8758 18.504 89.8758 15.192C89.8758 11.904 87.5718 9.12 83.7318 9.12C79.9158 9.12 77.6118 11.904 77.6118 15.192C77.6118 18.504 79.9158 21.288 83.7318 21.288ZM83.7318 18.576C81.8358 18.576 80.7798 17.016 80.7798 15.192C80.7798 13.392 81.8358 11.832 83.7318 11.832C85.6278 11.832 86.7078 13.392 86.7078 15.192C86.7078 17.016 85.6278 18.576 83.7318 18.576ZM99.649 21H103.465L98.737 14.664L103.321 9.408H99.577L95.185 14.568V4.992H92.137V21H95.185V18.024L96.577 16.536L99.649 21ZM103.809 19.488C105.033 20.616 106.977 21.288 108.993 21.288C112.209 21.288 114.009 19.68 114.009 17.568C114.009 14.688 111.345 14.16 109.353 13.776C108.057 13.512 107.145 13.248 107.145 12.528C107.145 11.856 107.865 11.448 108.969 11.448C110.385 11.448 111.705 12.048 112.401 12.792L113.625 10.704C112.473 9.792 110.913 9.12 108.945 9.12C105.897 9.12 104.193 10.824 104.193 12.768C104.193 15.528 106.761 16.008 108.753 16.392C110.073 16.656 111.081 16.944 111.081 17.76C111.081 18.48 110.457 18.936 109.137 18.936C107.697 18.936 105.969 18.144 105.129 17.352L103.809 19.488Z" fill="#00E7F9"/>
<defs>
<linearGradient id="paint0_linear" x1="-1.55556" y1="26.6667" x2="24.9819" y2="13.9622" gradientUnits="userSpaceOnUse">
<stop stop-color="#0093DC"/>
<stop offset="1" stop-color="#00E7F9" stop-opacity="0"/>
</linearGradient>
</defs>
</svg>
