<svg width="130" height="28" viewBox="0 0 130 28" fill="none" xmlns="http://www.w3.org/2000/svg">
<circle cx="14" cy="14" r="13" stroke="url(#paint0_linear)" stroke-width="2"/>
<path opacity="0.8" d="M17.704 21H20.512V14.088H28.504V11.616H20.512V7.464H28.672V4.992H17.704V21ZM32.3566 7.488C33.2206 7.488 33.9166 6.792 33.9166 5.928C33.9166 5.064 33.2206 4.368 32.3566 4.368C31.5166 4.368 30.7966 5.064 30.7966 5.928C30.7966 6.792 31.5166 7.488 32.3566 7.488ZM31.1086 21H33.6286V9.408H31.1086V21ZM44.7216 21H47.2416V12.84C47.2416 10.464 45.9936 9.12 43.4976 9.12C41.6736 9.12 40.1856 10.08 39.4176 10.992V9.408H36.8976V21H39.4176V12.912C39.9936 12.12 41.0976 11.352 42.3936 11.352C43.8096 11.352 44.7216 11.952 44.7216 13.752V21Z" fill="white"/>
<path d="M49.768 15.192C49.768 14.024 50.032 12.984 50.56 12.072C51.088 11.144 51.816 10.424 52.744 9.912C53.672 9.384 54.728 9.12 55.912 9.12C57 9.12 57.928 9.32 58.696 9.72C59.464 10.104 60.064 10.6 60.496 11.208L58.504 13.08C57.944 12.248 57.128 11.832 56.056 11.832C55.128 11.832 54.368 12.144 53.776 12.768C53.2 13.376 52.912 14.184 52.912 15.192C52.912 16.2 53.2 17.016 53.776 17.64C54.368 18.264 55.128 18.576 56.056 18.576C56.568 18.576 57.032 18.472 57.448 18.264C57.864 18.04 58.216 17.728 58.504 17.328L60.496 19.176C60.064 19.784 59.464 20.288 58.696 20.688C57.944 21.088 57.016 21.288 55.912 21.288C54.728 21.288 53.672 21.032 52.744 20.52C51.816 19.992 51.088 19.272 50.56 18.36C50.032 17.432 49.768 16.376 49.768 15.192ZM62.4886 4.992H65.5366V21H62.4886V4.992ZM75.5189 19.8C75.1189 20.264 74.5909 20.632 73.9349 20.904C73.2949 21.16 72.5989 21.288 71.8469 21.288C71.1909 21.288 70.5509 21.144 69.9269 20.856C69.3189 20.568 68.8149 20.136 68.4149 19.56C68.0149 18.968 67.8149 18.264 67.8149 17.448C67.8149 16.6 68.0149 15.904 68.4149 15.36C68.8149 14.8 69.3189 14.392 69.9269 14.136C70.5349 13.88 71.1749 13.752 71.8469 13.752C72.6309 13.752 73.3429 13.872 73.9829 14.112C74.6229 14.352 75.1349 14.704 75.5189 15.168V13.56C75.5189 12.968 75.2869 12.496 74.8229 12.144C74.3589 11.792 73.7429 11.616 72.9749 11.616C71.7109 11.616 70.5829 12.072 69.5909 12.984L68.4389 10.944C69.1269 10.336 69.9029 9.88 70.7669 9.576C71.6469 9.272 72.5589 9.12 73.5029 9.12C74.9909 9.12 76.2069 9.464 77.1509 10.152C78.0949 10.84 78.5669 11.96 78.5669 13.512V21H75.5189V19.8ZM75.5189 16.776C75.2789 16.456 74.9349 16.208 74.4869 16.032C74.0549 15.856 73.5829 15.768 73.0709 15.768C72.4469 15.768 71.9269 15.928 71.5109 16.248C71.0949 16.552 70.8869 16.976 70.8869 17.52C70.8869 18.048 71.0949 18.464 71.5109 18.768C71.9269 19.072 72.4469 19.224 73.0709 19.224C73.5829 19.224 74.0549 19.136 74.4869 18.96C74.9349 18.784 75.2789 18.536 75.5189 18.216V16.776ZM81.9021 17.352C82.3501 17.768 82.9581 18.136 83.7261 18.456C84.4941 18.776 85.2221 18.936 85.9101 18.936C86.5501 18.936 87.0301 18.832 87.3501 18.624C87.6861 18.416 87.8541 18.128 87.8541 17.76C87.8541 17.392 87.6621 17.112 87.2781 16.92C86.8941 16.728 86.3101 16.552 85.5261 16.392C84.5981 16.216 83.8301 16.024 83.2221 15.816C82.6141 15.608 82.0861 15.264 81.6381 14.784C81.1901 14.288 80.9661 13.616 80.9661 12.768C80.9661 12.112 81.1501 11.504 81.5181 10.944C81.9021 10.384 82.4541 9.944 83.1741 9.624C83.8941 9.288 84.7421 9.12 85.7181 9.12C87.5101 9.12 89.0701 9.648 90.3981 10.704L89.1741 12.792C88.8061 12.408 88.3101 12.088 87.6861 11.832C87.0781 11.576 86.4301 11.448 85.7421 11.448C85.1821 11.448 84.7341 11.544 84.3981 11.736C84.0781 11.928 83.9181 12.192 83.9181 12.528C83.9181 12.864 84.0941 13.12 84.4461 13.296C84.8141 13.456 85.3741 13.616 86.1261 13.776C87.0541 13.952 87.8301 14.152 88.4541 14.376C89.0781 14.6 89.6221 14.968 90.0861 15.48C90.5501 15.992 90.7821 16.688 90.7821 17.568C90.7821 18.272 90.5821 18.912 90.1821 19.488C89.7981 20.048 89.2221 20.488 88.4541 20.808C87.7021 21.128 86.8061 21.288 85.7661 21.288C84.7581 21.288 83.7901 21.128 82.8621 20.808C81.9501 20.488 81.1901 20.048 80.5821 19.488L81.9021 17.352ZM93.3396 17.352C93.7876 17.768 94.3956 18.136 95.1636 18.456C95.9316 18.776 96.6596 18.936 97.3476 18.936C97.9876 18.936 98.4676 18.832 98.7876 18.624C99.1236 18.416 99.2916 18.128 99.2916 17.76C99.2916 17.392 99.0996 17.112 98.7156 16.92C98.3316 16.728 97.7476 16.552 96.9636 16.392C96.0356 16.216 95.2676 16.024 94.6596 15.816C94.0516 15.608 93.5236 15.264 93.0756 14.784C92.6276 14.288 92.4036 13.616 92.4036 12.768C92.4036 12.112 92.5876 11.504 92.9556 10.944C93.3396 10.384 93.8916 9.944 94.6116 9.624C95.3316 9.288 96.1796 9.12 97.1556 9.12C98.9476 9.12 100.508 9.648 101.836 10.704L100.612 12.792C100.244 12.408 99.7476 12.088 99.1236 11.832C98.5156 11.576 97.8676 11.448 97.1796 11.448C96.6196 11.448 96.1716 11.544 95.8356 11.736C95.5156 11.928 95.3556 12.192 95.3556 12.528C95.3556 12.864 95.5316 13.12 95.8836 13.296C96.2516 13.456 96.8116 13.616 97.5636 13.776C98.4916 13.952 99.2676 14.152 99.8916 14.376C100.516 14.6 101.06 14.968 101.524 15.48C101.988 15.992 102.22 16.688 102.22 17.568C102.22 18.272 102.02 18.912 101.62 19.488C101.236 20.048 100.66 20.488 99.8916 20.808C99.1396 21.128 98.2436 21.288 97.2036 21.288C96.1956 21.288 95.2276 21.128 94.2996 20.808C93.3876 20.488 92.6276 20.048 92.0196 19.488L93.3396 17.352Z" fill="#00E7F9"/>
<defs>
<linearGradient id="paint0_linear" x1="-1.55556" y1="26.6667" x2="27" y2="16.5" gradientUnits="userSpaceOnUse">
<stop stop-color="#0093DC"/>
<stop offset="1" stop-color="#00E7F9" stop-opacity="0"/>
</linearGradient>
</defs>
</svg>
