<svg width="128" height="28" fill="none" xmlns="http://www.w3.org/2000/svg"><g clip-path="url(#clip0)"><path d="M13.757 27c7.056 0 12.775-5.82 12.775-13S20.812 1 13.757 1C6.702 1 .982 6.82.982 14s5.72 13 12.775 13z" stroke="url(#paint0_linear)" stroke-width="2"/><path opacity=".8" d="M17.398 21h2.759v-6.912h7.854v-2.472h-7.854V7.464h8.019V4.992H17.398V21zM31.797 7.488c.848 0 1.533-.696 1.533-1.56 0-.864-.684-1.56-1.533-1.56-.826 0-1.534.696-1.534 1.56 0 .864.708 1.56 1.534 1.56zM30.57 21h2.476V9.408H30.57V21zm13.377 0h2.477v-8.16c0-2.376-1.227-3.72-3.68-3.72-1.792 0-3.254.96-4.009 1.872V9.408H36.26V21h2.476v-8.088c.566-.792 1.651-1.56 2.925-1.56 1.391 0 2.288.6 2.288 2.4V21z" fill="#fff"/><path d="M48.906 15.192c0 3.576 2.524 6.096 6.038 6.096 2.335 0 3.75-1.032 4.505-2.112l-1.958-1.848c-.542.768-1.368 1.248-2.406 1.248-1.816 0-3.09-1.368-3.09-3.384s1.274-3.36 3.09-3.36c1.038 0 1.864.432 2.406 1.248l1.958-1.872c-.755-1.056-2.17-2.088-4.505-2.088-3.514 0-6.038 2.52-6.038 6.072zM61.406 21h2.996V4.992h-2.995V21zm12.806 0h2.995v-7.488c0-3.336-2.382-4.392-4.977-4.392-1.792 0-3.585.576-4.976 1.824l1.132 2.04c.967-.912 2.1-1.368 3.326-1.368 1.509 0 2.5.768 2.5 1.944v1.608c-.755-.936-2.1-1.416-3.609-1.416-1.816 0-3.962.984-3.962 3.696 0 2.592 2.146 3.84 3.962 3.84 1.486 0 2.83-.552 3.609-1.488V21zm0-2.784c-.496.672-1.44 1.008-2.406 1.008-1.18 0-2.146-.624-2.146-1.704 0-1.128.967-1.752 2.146-1.752.967 0 1.91.336 2.406 1.008v1.44zm4.975 1.272c1.203 1.128 3.113 1.8 5.094 1.8 3.16 0 4.93-1.608 4.93-3.72 0-2.88-2.618-3.408-4.576-3.792-1.273-.264-2.17-.528-2.17-1.248 0-.672.708-1.08 1.793-1.08 1.391 0 2.688.6 3.372 1.344l1.203-2.088c-1.132-.912-2.665-1.584-4.599-1.584-2.995 0-4.67 1.704-4.67 3.648 0 2.76 2.524 3.24 4.482 3.624 1.297.264 2.287.552 2.287 1.368 0 .72-.613 1.176-1.91 1.176-1.415 0-3.113-.792-3.939-1.584l-1.297 2.136zm11.24 0c1.202 1.128 3.113 1.8 5.094 1.8 3.16 0 4.929-1.608 4.929-3.72 0-2.88-2.618-3.408-4.575-3.792-1.274-.264-2.17-.528-2.17-1.248 0-.672.707-1.08 1.792-1.08 1.392 0 2.689.6 3.373 1.344l1.203-2.088c-1.132-.912-2.665-1.584-4.6-1.584-2.995 0-4.67 1.704-4.67 3.648 0 2.76 2.525 3.24 4.482 3.624 1.297.264 2.288.552 2.288 1.368 0 .72-.613 1.176-1.91 1.176-1.416 0-3.114-.792-3.94-1.584l-1.296 2.136zm11.498-4.296c0 3.72 2.618 6.096 6.085 6.096 1.769 0 3.562-.552 4.694-1.608l-1.321-1.968c-.731.72-1.981 1.152-3.043 1.152-1.933 0-3.089-1.224-3.278-2.688h8.467v-.672c0-3.792-2.311-6.384-5.707-6.384-3.467 0-5.897 2.712-5.897 6.072zm5.897-3.648c1.981 0 2.735 1.464 2.806 2.568h-5.613c.142-1.152.943-2.568 2.807-2.568zm6.88 7.944c1.203 1.128 3.114 1.8 5.095 1.8 3.16 0 4.929-1.608 4.929-3.72 0-2.88-2.618-3.408-4.576-3.792-1.273-.264-2.169-.528-2.169-1.248 0-.672.707-1.08 1.792-1.08 1.392 0 2.689.6 3.373 1.344l1.203-2.088c-1.133-.912-2.666-1.584-4.599-1.584-2.996 0-4.67 1.704-4.67 3.648 0 2.76 2.523 3.24 4.481 3.624 1.297.264 2.288.552 2.288 1.368 0 .72-.614 1.176-1.911 1.176-1.415 0-3.113-.792-3.938-1.584l-1.298 2.136z" fill="#00E7F9"/></g><defs><linearGradient id="paint0_linear" x1="-1.529" y1="26.667" x2="26.641" y2="16.811" gradientUnits="userSpaceOnUse"><stop stop-color="#0093DC"/><stop offset="1" stop-color="#00E7F9" stop-opacity="0"/></linearGradient><clipPath id="clip0"><path fill="#fff" d="M0 0h127.75v28H0z"/></clipPath></defs></svg>