<svg width="101" height="28" fill="none" xmlns="http://www.w3.org/2000/svg"><g clip-path="url(#clip0)"><path opacity=".8" d="M17.639 21h2.797v-6.912H28.4v-2.472h-7.963V7.464h8.13V4.992H17.639V21zM32.237 7.488c.86 0 1.554-.696 1.554-1.56 0-.864-.693-1.56-1.554-1.56a1.57 1.57 0 00-1.554 1.56c0 .864.717 1.56 1.554 1.56zM30.993 21h2.511V9.408h-2.51V21zm13.563 0h2.51v-8.16c0-2.376-1.243-3.72-3.73-3.72-1.817 0-3.3.96-4.064 1.872V9.408H36.76V21h2.51v-8.088c.575-.792 1.674-1.56 2.966-1.56 1.41 0 2.319.6 2.319 2.4V21z" fill="#fff"/><path d="M58.263 21h3.06V4.992h-3.06v5.904c-.909-1.176-2.2-1.776-3.563-1.776-2.941 0-5.117 2.304-5.117 6.096 0 3.864 2.2 6.072 5.117 6.072 1.387 0 2.654-.624 3.563-1.776V21zm0-3.744c-.502.768-1.602 1.32-2.63 1.32-1.722 0-2.918-1.368-2.918-3.36 0-2.016 1.196-3.384 2.917-3.384 1.029 0 2.129.552 2.63 1.32v4.104zm11.428 4.032c3.825 0 6.12-2.784 6.12-6.096 0-3.288-2.295-6.072-6.12-6.072-3.802 0-6.098 2.784-6.098 6.072 0 3.312 2.296 6.096 6.098 6.096zm0-2.712c-1.89 0-2.942-1.56-2.942-3.384 0-1.8 1.053-3.36 2.942-3.36 1.888 0 2.965 1.56 2.965 3.36 0 1.824-1.077 3.384-2.965 3.384zm7.632-3.384c0 3.576 2.559 6.096 6.122 6.096 2.367 0 3.801-1.032 4.567-2.112l-1.985-1.848a2.912 2.912 0 01-2.439 1.248c-1.841 0-3.132-1.368-3.132-3.384s1.29-3.36 3.132-3.36c1.052 0 1.889.432 2.439 1.248l1.985-1.872c-.766-1.056-2.2-2.088-4.567-2.088-3.563 0-6.122 2.52-6.122 6.072zm11.67 4.296c1.219 1.128 3.156 1.8 5.164 1.8 3.204 0 4.998-1.608 4.998-3.72 0-2.88-2.654-3.408-4.64-3.792-1.29-.264-2.199-.528-2.199-1.248 0-.672.717-1.08 1.817-1.08 1.411 0 2.726.6 3.42 1.344l1.219-2.088c-1.148-.912-2.702-1.584-4.663-1.584-3.036 0-4.734 1.704-4.734 3.648 0 2.76 2.558 3.24 4.543 3.624 1.315.264 2.32.552 2.32 1.368 0 .72-.622 1.176-1.937 1.176-1.435 0-3.157-.792-3.993-1.584l-1.316 2.136z" fill="#00E7F9"/><path d="M4.623 1.344h0l17.605 10.549h0c1.58.945 1.58 3.27 0 4.214h0L4.623 26.656h0c-1.589.953-3.627-.199-3.627-2.11V3.455c0-1.911 2.038-3.063 3.627-2.11z" stroke="url(#paint0_linear)" stroke-width="2"/></g><defs><linearGradient id="paint0_linear" x1="-1.356" y1="26.667" x2="22.862" y2="16.56" gradientUnits="userSpaceOnUse"><stop stop-color="#0093DC"/><stop offset="1" stop-color="#00E7F9" stop-opacity="0"/></linearGradient><clipPath id="clip0"><path fill="#fff" d="M0 0h100.625v28H0z"/></clipPath></defs></svg>