<svg width="116" height="28" viewBox="0 0 116 28" fill="none" xmlns="http://www.w3.org/2000/svg">
<path opacity="0.8" d="M20.512 21H17.704V4.992H28.672V7.464H20.512V11.616H28.504V14.088H20.512V21ZM32.3566 7.992C31.9406 7.992 31.5726 7.84 31.2526 7.536C30.9486 7.232 30.7966 6.864 30.7966 6.432C30.7966 6 30.9486 5.632 31.2526 5.328C31.5726 5.024 31.9406 4.872 32.3566 4.872C32.7886 4.872 33.1566 5.024 33.4606 5.328C33.7646 5.632 33.9166 6 33.9166 6.432C33.9166 6.864 33.7646 7.232 33.4606 7.536C33.1566 7.84 32.7886 7.992 32.3566 7.992ZM33.6286 21H31.1086V9.408H33.6286V21ZM47.2416 21H44.7216V13.752C44.7216 12.152 43.9456 11.352 42.3936 11.352C41.7856 11.352 41.2176 11.504 40.6896 11.808C40.1616 12.112 39.7376 12.48 39.4176 12.912V21H36.8976V9.408H39.4176V10.992C39.8496 10.48 40.4256 10.04 41.1456 9.672C41.8656 9.304 42.6496 9.12 43.4976 9.12C44.7296 9.12 45.6576 9.44 46.2816 10.08C46.9216 10.72 47.2416 11.64 47.2416 12.84V21Z" fill="white"/>
<path d="M56.688 21.288C55.68 21.288 54.712 21.128 53.784 20.808C52.872 20.488 52.112 20.048 51.504 19.488L52.824 17.352C53.272 17.768 53.88 18.136 54.648 18.456C55.416 18.776 56.144 18.936 56.832 18.936C57.472 18.936 57.952 18.824 58.272 18.6C58.608 18.376 58.776 18.072 58.776 17.688C58.776 17.4 58.6 17.168 58.248 16.992C57.912 16.8 57.488 16.664 56.976 16.584C56.48 16.504 55.928 16.384 55.32 16.224C54.728 16.064 54.176 15.872 53.664 15.648C53.168 15.424 52.744 15.072 52.392 14.592C52.056 14.096 51.888 13.488 51.888 12.768C51.888 11.744 52.312 10.88 53.16 10.176C54.008 9.472 55.168 9.12 56.64 9.12C58.432 9.12 59.992 9.648 61.32 10.704L60.096 12.792C59.728 12.408 59.232 12.088 58.608 11.832C58 11.576 57.352 11.448 56.664 11.448C56.12 11.448 55.68 11.56 55.344 11.784C55.008 11.992 54.84 12.264 54.84 12.6C54.84 12.856 55.008 13.072 55.344 13.248C55.68 13.408 56.104 13.528 56.616 13.608C57.128 13.688 57.68 13.816 58.272 13.992C58.864 14.152 59.416 14.352 59.928 14.592C60.44 14.816 60.864 15.184 61.2 15.696C61.536 16.208 61.704 16.832 61.704 17.568C61.704 18.656 61.256 19.552 60.36 20.256C59.48 20.944 58.256 21.288 56.688 21.288ZM69.3975 21.288C67.6055 21.288 66.1255 20.728 64.9575 19.608C63.7895 18.488 63.2055 17.016 63.2055 15.192C63.2055 13.48 63.7655 12.04 64.8855 10.872C66.0215 9.704 67.4615 9.12 69.2055 9.12C70.9335 9.12 72.3335 9.712 73.4055 10.896C74.4775 12.064 75.0135 13.6 75.0135 15.504V16.176H66.3975C66.4935 16.944 66.8375 17.584 67.4295 18.096C68.0215 18.608 68.7895 18.864 69.7335 18.864C70.2455 18.864 70.7975 18.76 71.3895 18.552C71.9975 18.344 72.4775 18.064 72.8295 17.712L74.1735 19.68C73.0055 20.752 71.4135 21.288 69.3975 21.288ZM72.0615 14.112C72.0135 13.456 71.7495 12.864 71.2695 12.336C70.8055 11.808 70.1175 11.544 69.2055 11.544C68.3415 11.544 67.6695 11.808 67.1895 12.336C66.7095 12.848 66.4295 13.44 66.3495 14.112H72.0615ZM80.2631 21H77.2151V9.408H80.2631V10.992C80.6951 10.448 81.2471 10 81.9191 9.648C82.5911 9.296 83.2711 9.12 83.9591 9.12V12.096C83.7511 12.048 83.4711 12.024 83.1191 12.024C82.6071 12.024 82.0631 12.152 81.4871 12.408C80.9111 12.664 80.5031 12.976 80.2631 13.344V21ZM87.3756 8.16C86.8796 8.16 86.4476 7.984 86.0796 7.632C85.7276 7.264 85.5516 6.832 85.5516 6.336C85.5516 5.84 85.7276 5.416 86.0796 5.064C86.4476 4.712 86.8796 4.536 87.3756 4.536C87.8876 4.536 88.3196 4.712 88.6716 5.064C89.0236 5.416 89.1996 5.84 89.1996 6.336C89.1996 6.832 89.0236 7.264 88.6716 7.632C88.3196 7.984 87.8876 8.16 87.3756 8.16ZM88.9116 21H85.8636V9.408H88.9116V21ZM97.3819 21.288C95.5899 21.288 94.1099 20.728 92.9419 19.608C91.7739 18.488 91.1899 17.016 91.1899 15.192C91.1899 13.48 91.7499 12.04 92.8699 10.872C94.0059 9.704 95.4459 9.12 97.1899 9.12C98.9179 9.12 100.318 9.712 101.39 10.896C102.462 12.064 102.998 13.6 102.998 15.504V16.176H94.3819C94.4779 16.944 94.8219 17.584 95.4139 18.096C96.0059 18.608 96.7739 18.864 97.7179 18.864C98.2299 18.864 98.7819 18.76 99.3739 18.552C99.9819 18.344 100.462 18.064 100.814 17.712L102.158 19.68C100.99 20.752 99.3979 21.288 97.3819 21.288ZM100.046 14.112C99.9979 13.456 99.7339 12.864 99.2539 12.336C98.7899 11.808 98.1019 11.544 97.1899 11.544C96.3259 11.544 95.6539 11.808 95.1739 12.336C94.6939 12.848 94.4139 13.44 94.3339 14.112H100.046ZM109.376 21.288C108.368 21.288 107.4 21.128 106.472 20.808C105.56 20.488 104.8 20.048 104.192 19.488L105.512 17.352C105.96 17.768 106.568 18.136 107.336 18.456C108.104 18.776 108.832 18.936 109.52 18.936C110.16 18.936 110.64 18.824 110.96 18.6C111.296 18.376 111.464 18.072 111.464 17.688C111.464 17.4 111.288 17.168 110.936 16.992C110.6 16.8 110.176 16.664 109.664 16.584C109.168 16.504 108.616 16.384 108.008 16.224C107.416 16.064 106.864 15.872 106.352 15.648C105.856 15.424 105.432 15.072 105.08 14.592C104.744 14.096 104.576 13.488 104.576 12.768C104.576 11.744 105 10.88 105.848 10.176C106.696 9.472 107.856 9.12 109.328 9.12C111.12 9.12 112.68 9.648 114.008 10.704L112.784 12.792C112.416 12.408 111.92 12.088 111.296 11.832C110.688 11.576 110.04 11.448 109.352 11.448C108.808 11.448 108.368 11.56 108.032 11.784C107.696 11.992 107.528 12.264 107.528 12.6C107.528 12.856 107.696 13.072 108.032 13.248C108.368 13.408 108.792 13.528 109.304 13.608C109.816 13.688 110.368 13.816 110.96 13.992C111.552 14.152 112.104 14.352 112.616 14.592C113.128 14.816 113.552 15.184 113.888 15.696C114.224 16.208 114.392 16.832 114.392 17.568C114.392 18.656 113.944 19.552 113.048 20.256C112.168 20.944 110.944 21.288 109.376 21.288Z" fill="#00E7F9"/>
<path d="M4.63994 1.34396L4.64029 1.34417L22.3111 11.8929L22.3117 11.8933C23.8961 12.8378 23.8961 15.1622 22.3117 16.1067L22.3111 16.1071L4.64029 26.6558L4.63994 26.656C3.04581 27.6086 1 26.4573 1 24.5465V3.45352C1 1.54272 3.04581 0.391443 4.63994 1.34396Z" stroke="url(#paint0_linear)" stroke-width="2"/>
<defs>
<linearGradient id="paint0_linear" x1="-1.36111" y1="26.6667" x2="22.9203" y2="16.4954" gradientUnits="userSpaceOnUse">
<stop stop-color="#0093DC"/>
<stop offset="1" stop-color="#00E7F9" stop-opacity="0"/>
</linearGradient>
</defs>
</svg>
