<svg width="121" height="32" fill="none" xmlns="http://www.w3.org/2000/svg"><g clip-path="url(#clip0)" fill="#fff"><path fill-rule="evenodd" clip-rule="evenodd" d="M43.791 20.59v1.761h4.197a3.703 3.703 0 01-.972 2.222 4.277 4.277 0 01-3.234 1.291c-2.575 0-4.663-2.103-4.663-4.697s2.088-4.697 4.663-4.697a4.45 4.45 0 013.176 1.262l1.233-1.243a6.087 6.087 0 00-4.4-1.83 6.41 6.41 0 00-5.768 3.157 6.51 6.51 0 000 6.614 6.41 6.41 0 005.768 3.157 5.806 5.806 0 004.478-1.81 5.897 5.897 0 001.516-4.13 5.784 5.784 0 00-.098-1.106l-5.896.049zm10.773-1.282c-2.28.005-4.123 1.87-4.119 4.165.004 2.296 1.853 4.155 4.132 4.153 2.278-.002 4.125-1.863 4.125-4.16a4.116 4.116 0 00-1.199-2.965 4.054 4.054 0 00-2.95-1.193h.01zm4.934 4.172c-.007-2.295 1.831-4.161 4.109-4.172a4.054 4.054 0 012.949 1.193 4.116 4.116 0 011.198 2.966c0 2.294-1.844 4.155-4.121 4.159-2.278.003-4.128-1.852-4.135-4.146zm1.673 1.081a2.503 2.503 0 002.436 1.43 2.382 2.382 0 001.694-.766c.439-.476.668-1.11.637-1.758a2.525 2.525 0 00-1.592-2.345 2.493 2.493 0 00-2.749.631 2.54 2.54 0 00-.426 2.808zm-9.05.008a2.503 2.503 0 002.443 1.423h-.01a2.382 2.382 0 001.694-.767c.439-.476.669-1.11.637-1.758a2.524 2.524 0 00-1.594-2.345 2.493 2.493 0 00-2.75.636 2.54 2.54 0 00-.42 2.81zm32.146-5.261a3.889 3.889 0 013.536 2.652l.204.44-5.527 2.3a2.097 2.097 0 002 1.262 2.357 2.357 0 002.031-1.154l1.409.978a4.1 4.1 0 01-3.44 1.84 4.025 4.025 0 01-2.926-1.202 4.087 4.087 0 01-1.172-2.957 3.932 3.932 0 011.048-2.928 3.871 3.871 0 012.837-1.231zM82.17 23.35a2.291 2.291 0 01.572-1.67c.406-.457.977-.73 1.585-.757a1.6 1.6 0 011.534.88l-3.69 1.547zm-2.671 4.031h-1.816V15.15h1.816v12.23zm-4.789-7.144h-.068a2.904 2.904 0 00-2.176-.978c-2.204.107-3.937 1.94-3.937 4.164 0 2.224 1.733 4.056 3.937 4.164a2.808 2.808 0 002.176-.979h.058v.597c0 1.595-.845 2.447-2.204 2.447a2.284 2.284 0 01-2.08-1.478l-1.582.665a3.934 3.934 0 003.662 2.457c2.127 0 3.885-1.263 3.885-4.336v-7.408h-1.67v.685zm-2.082 5.755h.004-.01.007zm1.637-.785a2.305 2.305 0 01-1.636.784 2.527 2.527 0 01-2.292-2.524c0-1.314.996-2.41 2.294-2.525a2.325 2.325 0 011.631.794c.415.476.622 1.1.575 1.73a2.34 2.34 0 01-.572 1.74zm22.048-10.058H91.97V27.38h1.816v-4.638h2.536a3.77 3.77 0 003.497-1.816 3.831 3.831 0 000-3.963 3.77 3.77 0 00-3.497-1.815h-.01zm-2.535 5.871h2.535l.039.03c1.15 0 2.083-.94 2.083-2.1a2.091 2.091 0 00-2.083-2.099h-2.574v4.17zm13.735-1.761a3.396 3.396 0 00-3.235 1.87l1.612.674a1.718 1.718 0 011.652-.9 1.74 1.74 0 011.299.378c.365.296.597.727.643 1.198v.127a3.987 3.987 0 00-1.894-.47c-1.738 0-3.497.979-3.497 2.75a2.84 2.84 0 00.942 1.986 2.793 2.793 0 002.07.705 2.55 2.55 0 002.331-1.174h.058v.978h1.749v-4.707c0-2.143-1.613-3.386-3.682-3.386l-.048-.029zm-1.642 5.666c0 .734.826 1.037 1.418 1.037l.049.03a2.202 2.202 0 002.127-1.957 3.205 3.205 0 00-1.651-.412c-.913 0-1.943.323-1.943 1.302zm11.743-5.373l-2.078 5.304h-.059l-2.156-5.304h-1.943l3.235 7.418-1.846 4.12h1.895l4.973-11.538h-2.021zm-14.511 7.83h-1.817V15.148h1.817V27.38z"/><path d="M37.865 9.787V3.378h1.809c.557 0 1.05.123 1.479.37.428.246.758.597.99 1.052.235.455.354.977.357 1.567v.409c0 .604-.118 1.134-.352 1.589a2.445 2.445 0 01-1 1.047c-.431.244-.934.369-1.51.374h-1.773zm.845-5.713v5.021h.89c.65 0 1.157-.202 1.517-.607.364-.405.546-.981.546-1.73v-.374c0-.727-.171-1.292-.515-1.694-.34-.405-.824-.61-1.452-.616h-.986zm4.727 3.287c0-.466.091-.886.273-1.258.185-.373.44-.66.766-.863a2.096 2.096 0 011.122-.304c.649 0 1.172.225 1.571.674.402.449.603 1.046.603 1.791v.057c0 .464-.09.88-.268 1.25-.176.367-.43.653-.761.858a2.098 2.098 0 01-1.136.309c-.646 0-1.17-.225-1.571-.674-.4-.449-.599-1.043-.599-1.782V7.36zm.819.097c0 .528.121.952.365 1.272.246.32.575.48.986.48.414 0 .742-.161.986-.484.243-.326.365-.78.365-1.365 0-.522-.125-.944-.374-1.267a1.175 1.175 0 00-.986-.489c-.402 0-.726.16-.973.48-.246.32-.37.778-.37 1.373zm8.754 1.206l.916-3.64h.814l-1.387 4.763h-.66l-1.157-3.61-1.127 3.61h-.66l-1.382-4.763h.81l.937 3.565 1.11-3.565h.655l1.131 3.64zm3.332-3.64l.026.599c.364-.458.84-.687 1.426-.687 1.007 0 1.514.568 1.523 1.704v3.147h-.814V6.635c-.003-.343-.082-.597-.238-.761-.152-.165-.392-.247-.717-.247-.264 0-.496.07-.696.211-.2.141-.355.326-.466.555v3.394h-.814V5.024h.77zm5.088 4.763h-.814V3.026h.814v6.76zm1.09-2.427c0-.466.091-.886.273-1.258.185-.373.44-.66.766-.863a2.096 2.096 0 011.122-.304c.649 0 1.173.225 1.572.674.402.449.603 1.046.603 1.791v.057c0 .464-.09.88-.269 1.25-.176.367-.43.653-.761.858a2.098 2.098 0 01-1.136.309c-.645 0-1.17-.225-1.571-.674-.4-.449-.599-1.043-.599-1.782V7.36zm.819.097c0 .528.122.952.365 1.272.247.32.575.48.986.48.414 0 .743-.161.986-.484.244-.326.365-.78.365-1.365 0-.522-.124-.944-.374-1.267a1.175 1.175 0 00-.986-.489c-.402 0-.726.16-.972.48-.247.32-.37.778-.37 1.373zm7.478 2.329c-.047-.094-.085-.262-.114-.502-.379.393-.83.59-1.356.59-.47 0-.855-.133-1.158-.397a1.298 1.298 0 01-.449-1.012c0-.496.188-.88.564-1.153.378-.276.91-.414 1.593-.414h.792v-.374c0-.285-.085-.51-.255-.678-.17-.17-.421-.255-.753-.255-.29 0-.534.073-.73.22-.197.147-.295.324-.295.533h-.819c0-.238.084-.467.251-.687.17-.223.4-.399.687-.528.29-.13.609-.194.955-.194.549 0 .978.138 1.29.414.31.273.472.65.484 1.131v2.192c0 .437.055.785.167 1.043v.07h-.854zm-1.351-.621c.255 0 .497-.066.726-.198.229-.132.395-.304.497-.515v-.977h-.638c-.998 0-1.496.292-1.496.876 0 .255.085.454.255.598.17.144.389.216.656.216zm3.116-1.8c0-.73.173-1.318.52-1.76a1.64 1.64 0 011.36-.67c.557 0 .998.19 1.324.572V3.026h.814v6.76h-.748l-.04-.51c-.325.399-.779.599-1.36.599-.551 0-1.002-.226-1.35-.678-.347-.452-.52-1.042-.52-1.77v-.061zm.814.092c0 .54.112.963.335 1.268.223.305.53.458.924.458.516 0 .893-.232 1.131-.696V6.301c-.244-.45-.618-.674-1.122-.674-.4 0-.71.154-.933.462-.223.308-.335.765-.335 1.37zm8.28 1.224l1.179-3.658h.832L81.98 9.787h-.62l-1.726-4.763h.832l1.21 3.658zm3.679 1.104h-.815v-4.76h.815v4.763zm-.88-6.025c0-.132.039-.244.118-.334.082-.091.203-.137.361-.137.159 0 .279.046.361.137a.48.48 0 01.123.334.465.465 0 01-.123.33c-.082.088-.202.132-.36.132-.16 0-.28-.044-.362-.132a.475.475 0 01-.119-.33zm5.127 6.026c-.047-.094-.085-.262-.114-.502-.379.393-.83.59-1.356.59-.47 0-.855-.133-1.158-.397a1.298 1.298 0 01-.449-1.012c0-.496.188-.88.564-1.153.378-.276.91-.414 1.593-.414h.792v-.374c0-.285-.085-.51-.255-.678-.17-.17-.421-.255-.753-.255-.29 0-.534.073-.73.22-.197.147-.295.324-.295.533h-.819c0-.238.084-.467.251-.687.17-.223.4-.399.687-.528.29-.13.609-.194.955-.194.548 0 .978.138 1.29.414.31.273.472.65.484 1.131v2.192c0 .437.055.785.167 1.043v.07h-.854zm-1.351-.621c.255 0 .497-.066.726-.198.229-.132.395-.304.497-.515v-.977h-.638c-.998 0-1.496.292-1.496.876 0 .255.085.454.255.598.17.144.389.216.656.216z"/><path fill-rule="evenodd" clip-rule="evenodd" d="M.422 3.38v23.938c0 .833.482 1.554 1.181 1.897l13.853-13.87L1.609 1.48a2.113 2.113 0 00-1.187 1.9zm4.286 25.116l15.14-8.753-3.199-3.203L4.71 28.496zm19.847-14.825c.504.386.829.994.829 1.678 0 .674-.315 1.274-.806 1.66l-3.216 1.86-3.52-3.524 3.518-3.522 3.195 1.848zm-4.709-2.722L4.716 2.202 16.65 14.15l3.197-3.201z"/></g><defs><clipPath id="clip0"><path fill="#fff" d="M0 0h120.366v31.585H0z"/></clipPath></defs></svg>