<svg width="40" height="40" fill="none" xmlns="http://www.w3.org/2000/svg"><path d="M15 11.117h10m-13.334 6.667h16.667" stroke="#00E7F9" stroke-width="1.5" stroke-linecap="round" stroke-linejoin="round"/><path d="M23.24 25.3a4.583 4.583 0 11-6.481 6.482A4.583 4.583 0 0123.24 25.3" stroke="#00E7F9" stroke-width="1.482" stroke-linecap="round" stroke-linejoin="round"/><path d="M24.584 28.542l4.583 4.583-4.375 4.375-4.392-4.39m-.8-.001L15.21 37.5l-4.375-4.375 4.583-4.583" stroke="#00E7F9" stroke-width="1.5" stroke-linecap="round" stroke-linejoin="round"/><path d="M10.833 33.125h-2.5A3.332 3.332 0 015 29.792V7.5a3.332 3.332 0 013.333-3.333h23.334A3.332 3.332 0 0135 7.5v22.292a3.332 3.332 0 01-3.333 3.333h-2.5" stroke="url(#paint0_linear)" stroke-width="1.5" stroke-linecap="round" stroke-linejoin="round"/><defs><linearGradient id="paint0_linear" x1="22.646" y1="41.261" x2="28.206" y2="6.025" gradientUnits="userSpaceOnUse"><stop stop-color="#00E7F9" stop-opacity="0"/><stop offset="1" stop-color="#00E7F9"/></linearGradient></defs></svg>