<svg width="40" height="40" fill="none" xmlns="http://www.w3.org/2000/svg"><path d="M5 15c0 1.842 3.73 3.333 8.333 3.333" stroke="#00E7F9" stroke-width="1.5" stroke-linecap="round" stroke-linejoin="round"/><path d="M13.332 25C8.73 25 5 23.51 5 21.667" stroke="url(#paint0_linear)" stroke-width="1.5" stroke-linecap="round" stroke-linejoin="round"/><path d="M21.666 8.333h.002v5M18.334 20c0 1.842 3.73 3.333 8.333 3.333 4.604 0 8.334-1.491 8.334-3.333m-8.331-3.333c-4.6 0-8.334 1.492-8.33 3.333m8.326-3.333c4.6 0 8.333 1.492 8.33 3.333" stroke="#00E7F9" stroke-width="1.5" stroke-linecap="round" stroke-linejoin="round"/><path d="M35 20v7.5M18.335 20v7.5m16.667 0v5.833c0 1.842-3.73 3.334-8.334 3.334-5.416 0-8.333-1.667-8.333-3.334V27.5m16.667 0c-1.667 1.667-4.167 2.5-8.334 2.5-4.166 0-6.666-.833-8.333-2.5" stroke="url(#paint1_linear)" stroke-width="1.5" stroke-linecap="round" stroke-linejoin="round"/><path clip-rule="evenodd" d="M13.333 11.667c4.603 0 8.334-1.493 8.334-3.334 0-1.84-3.731-3.333-8.334-3.333C8.731 5 5 6.492 5 8.333c0 1.841 3.731 3.334 8.333 3.334z" stroke="#00E7F9" stroke-width="1.5" stroke-linecap="round" stroke-linejoin="round"/><path d="M5 8.333v20c0 2.083 5 3.333 8.333 3.333" stroke="url(#paint2_linear)" stroke-width="1.5" stroke-linecap="round" stroke-linejoin="round"/><defs><linearGradient id="paint0_linear" x1="9.901" y1="25.937" x2="10.171" y2="21.798" gradientUnits="userSpaceOnUse"><stop stop-color="#00E7F9" stop-opacity="0"/><stop offset="1" stop-color="#00E7F9"/></linearGradient><linearGradient id="paint1_linear" x1="28.137" y1="41.349" x2="31.447" y2="21.105" gradientUnits="userSpaceOnUse"><stop stop-color="#00E7F9" stop-opacity="0"/><stop offset="1" stop-color="#00E7F9"/></linearGradient><linearGradient id="paint2_linear" x1="5.833" y1="33.75" x2="8.683" y2="24.463" gradientUnits="userSpaceOnUse"><stop stop-color="#00E7F9" stop-opacity="0"/><stop offset="1" stop-color="#00E7F9"/></linearGradient></defs></svg>