<svg width="42" height="42" fill="none" xmlns="http://www.w3.org/2000/svg"><path d="M24.377 29.206v3.877a2.25 2.25 0 001.244 2.012l.87.435a4.502 4.502 0 004.025 0l.87-.435a2.25 2.25 0 001.244-2.012v-3.877" stroke="url(#paint0_linear)" stroke-width="1.5" stroke-linecap="round" stroke-linejoin="round"/><path clip-rule="evenodd" d="M21.688 27.863l5.148 2.57a3.746 3.746 0 003.344 0l5.142-2.57a1.246 1.246 0 000-2.23l-5.152-2.57a3.737 3.737 0 00-3.345 0l-5.142 2.57a1.246 1.246 0 00.005 2.23z" stroke="#00E7F9" stroke-width="1.5" stroke-linecap="round" stroke-linejoin="round"/><path d="M36.008 26.747v3.001M28.504 4.326v3.752M13.498 4.326v3.752M5.994 15.58h30.013" stroke="#00E7F9" stroke-width="1.5" stroke-linecap="round" stroke-linejoin="round"/><path d="M36.007 19.333V11.83a5.627 5.627 0 00-5.628-5.628H11.621a5.627 5.627 0 00-5.627 5.627v16.883a5.627 5.627 0 005.627 5.627h7.712" stroke="url(#paint1_linear)" stroke-width="1.5" stroke-linecap="round" stroke-linejoin="round"/><defs><linearGradient id="paint0_linear" x1="29.232" y1="37.915" x2="30.353" y2="29.587" gradientUnits="userSpaceOnUse"><stop stop-color="#00E7F9" stop-opacity="0"/><stop offset="1" stop-color="#00E7F9"/></linearGradient><linearGradient id="paint1_linear" x1="23.648" y1="42.244" x2="28.901" y2="7.96" gradientUnits="userSpaceOnUse"><stop stop-color="#00E7F9" stop-opacity="0"/><stop offset="1" stop-color="#00E7F9"/></linearGradient></defs></svg>