<svg width="40" height="40" fill="none" xmlns="http://www.w3.org/2000/svg"><path d="M25 15h3.333M11.667 28.333H15m5 0h8.333" stroke="#00E7F9" stroke-width="1.5" stroke-linecap="round" stroke-linejoin="round"/><path d="M31.667 6.667A3.332 3.332 0 0135 10v21.667A3.332 3.332 0 0131.667 35H8.333A3.332 3.332 0 015 31.667V10a3.332 3.332 0 013.333-3.333" stroke="url(#paint0_linear)" stroke-width="1.5" stroke-linecap="round" stroke-linejoin="round"/><path d="M11.667 21.667H15m5 0h8.333" stroke="#00E7F9" stroke-width="1.5" stroke-linecap="round" stroke-linejoin="round"/><path clip-rule="evenodd" d="M16.667 5h-3.333c-.92 0-1.667.747-1.667 1.667V15L15 13.333 18.334 15V6.667c0-.92-.747-1.667-1.667-1.667z" stroke="#00E7F9" stroke-width="1.5" stroke-linecap="round" stroke-linejoin="round"/><path d="M8.333 6.667h3.333m6.667 0h13.333" stroke="#00E7F9" stroke-width="1.5" stroke-linecap="round" stroke-linejoin="round"/><defs><linearGradient id="paint0_linear" x1="22.646" y1="42.96" x2="27.974" y2="8.449" gradientUnits="userSpaceOnUse"><stop stop-color="#00E7F9" stop-opacity="0"/><stop offset="1" stop-color="#00E7F9"/></linearGradient></defs></svg>