<svg width="24" height="24" fill="none" xmlns="http://www.w3.org/2000/svg"><path clip-rule="evenodd" d="M6 21H4a1 1 0 01-1-1v-6a1 1 0 011-1h2a1 1 0 011 1v6a1 1 0 01-1 1z" stroke="#00E7F9" stroke-width="1.5" stroke-linecap="round" stroke-linejoin="round"/><path d="M13 17h2.333c.433 0 .854-.14 1.2-.4l2.416-1.812a1.515 1.515 0 011.98.141v0a1.514 1.514 0 010 2.142l-2.073 2.073a4.004 4.004 0 01-2.044 1.094l-2.93.586a3.999 3.999 0 01-1.755-.042l-2.65-.662a3.957 3.957 0 00-.969-.12H7" stroke="url(#paint0_linear)" stroke-width="1.5" stroke-linecap="round" stroke-linejoin="round"/><path d="M13 17h1.485c.837 0 1.515-.678 1.515-1.515v-.303c0-.695-.473-1.301-1.147-1.469l-2.292-.573a4.705 4.705 0 00-1.139-.14v0a4.69 4.69 0 00-2.605.789L7 15" stroke="url(#paint1_linear)" stroke-width="1.5" stroke-linecap="round" stroke-linejoin="round"/><path d="M17.169 5.155a2.838 2.838 0 11-4.014 4.014 2.838 2.838 0 014.014-4.014" stroke="#00E7F9" stroke-width="1.5" stroke-linecap="round" stroke-linejoin="round"/><path d="M14.631 4.375a2.816 2.816 0 00-.787-1.544 2.838 2.838 0 10-1.476 4.793" stroke="#00E7F9" stroke-width="1.5" stroke-linecap="round" stroke-linejoin="round"/><defs><linearGradient id="paint0_linear" x1="15.454" y1="22.704" x2="16.035" y2="14.745" gradientUnits="userSpaceOnUse"><stop stop-color="#00E7F9" stop-opacity="0"/><stop offset="1" stop-color="#00E7F9"/></linearGradient><linearGradient id="paint1_linear" x1="12.294" y1="18.124" x2="12.654" y2="13.162" gradientUnits="userSpaceOnUse"><stop stop-color="#00E7F9" stop-opacity="0"/><stop offset="1" stop-color="#00E7F9"/></linearGradient></defs></svg>