<svg width="24" height="24" fill="none" xmlns="http://www.w3.org/2000/svg"><path d="M16 21l-1-4" stroke="url(#paint0_linear)" stroke-width="1.5" stroke-linecap="round" stroke-linejoin="round"/><path d="M8 21l1-4" stroke="url(#paint1_linear)" stroke-width="1.5" stroke-linecap="round" stroke-linejoin="round"/><path clip-rule="evenodd" d="M18.925 17H5.075A2.075 2.075 0 013 14.925v-9.85C3 3.929 3.929 3 5.075 3h13.849C20.071 3 21 3.929 21 5.075v9.849A2.075 2.075 0 0118.925 17z" stroke="url(#paint2_linear)" stroke-width="1.5" stroke-linecap="round" stroke-linejoin="round"/><path d="M7.5 13v-2.73m3 2.73V7m3 6V9.68m3 3.32V7.55" stroke="#00E7F9" stroke-width="1.5" stroke-linecap="round" stroke-linejoin="round"/><defs><linearGradient id="paint0_linear" x1="14.5" y1="17.5" x2="14.854" y2="22.714" gradientUnits="userSpaceOnUse"><stop stop-color="#00E7F9" stop-opacity="0"/><stop offset="1" stop-color="#00E7F9"/></linearGradient><linearGradient id="paint1_linear" x1="8" y1="17.5" x2="7.773" y2="20.363" gradientUnits="userSpaceOnUse"><stop stop-color="#00E7F9" stop-opacity="0"/><stop offset="1" stop-color="#00E7F9"/></linearGradient><linearGradient id="paint2_linear" x1="13.588" y1="20.933" x2="15.772" y2="3.752" gradientUnits="userSpaceOnUse"><stop stop-color="#00E7F9" stop-opacity="0"/><stop offset="1" stop-color="#00E7F9"/></linearGradient></defs></svg>