<svg width="24" height="24" fill="none" xmlns="http://www.w3.org/2000/svg"><path d="M3 9V6a2 2 0 012-2h14a2 2 0 012 2v12a2 2 0 01-2 2h-6" stroke="url(#paint0_linear)" stroke-width="1.5" stroke-linecap="round" stroke-linejoin="round"/><path d="M9 20l-.251-.63a2.304 2.304 0 00-.576-.839v0a2.308 2.308 0 00-1.569-.615H4.396a2.31 2.31 0 00-1.569.615v0c-.252.233-.449.52-.576.839L2 20m4.737-7.487a1.75 1.75 0 11-2.477 2.475 1.75 1.75 0 012.477-2.475M11 15V9m3 6v-3.32M17 15V9.55" stroke="#00E7F9" stroke-width="1.5" stroke-linecap="round" stroke-linejoin="round"/><defs><linearGradient id="paint0_linear" x1="13.588" y1="24.495" x2="16.427" y2="4.954" gradientUnits="userSpaceOnUse"><stop stop-color="#00E7F9" stop-opacity="0"/><stop offset="1" stop-color="#00E7F9"/></linearGradient></defs></svg>