<svg width="168" height="28" viewBox="0 0 168 28" fill="none" xmlns="http://www.w3.org/2000/svg">
<path d="M51.6326 0C51.9639 0 52.2782 0.136431 52.5705 0.389802C52.9214 0.701644 53.0992 1.0549 53.0992 1.4642C53.0992 1.87349 52.9238 2.24624 52.5705 2.55808C52.2782 2.83094 51.9639 2.96737 51.6326 2.96737C49.5812 2.96737 47.8028 3.67145 46.3581 5.11616C44.9134 6.56086 44.2093 8.33934 44.2093 10.3907V10.4686H49.9735C50.3828 10.4686 50.736 10.6051 51.0284 10.8974C51.3012 11.1898 51.4377 11.543 51.4377 11.9328C51.4377 12.3421 51.3012 12.6954 51.0284 12.9877C50.736 13.2801 50.3828 13.4165 49.9735 13.4165H44.2093V26.3312C44.2093 26.7794 44.0728 27.1327 43.8 27.3861C43.5076 27.6784 43.1544 27.7953 42.7256 27.7953C42.3163 27.7953 41.963 27.6784 41.6707 27.3861C41.3783 27.0937 41.2224 26.7404 41.2224 26.3312V10.1008C41.2224 8.67554 41.5732 7.36483 42.1019 6.1735C42.6306 4.98216 43.3907 3.90777 44.3871 2.93083C46.4141 0.976942 48.8382 0 51.6521 0H51.6326Z" fill="white"/>
<path d="M57.4351 7.36719C57.8638 7.36719 58.2756 7.56209 58.6459 7.97382C58.7044 8.07127 58.7628 8.18821 58.8213 8.32464C58.8798 8.46107 58.8993 8.63648 58.8993 8.85331V26.3408C58.8993 26.5552 58.8798 26.7306 58.8213 26.8695C58.7628 27.0059 58.7044 27.1229 58.6264 27.2203C58.2561 27.6101 57.8638 27.8074 57.4546 27.8074C57.0842 27.8074 56.7505 27.632 56.4581 27.3592C56.1463 27.0668 55.9904 26.7331 55.9904 26.3238V8.83138C55.9904 8.42209 56.1463 8.10781 56.4581 7.81546C56.7505 7.5426 57.0842 7.36719 57.4546 7.36719H57.4351Z" fill="white"/>
<path d="M69.7852 7.89355C72.012 7.89355 73.9269 8.69508 75.5299 10.2957C77.1135 11.8793 77.9126 13.7942 77.9126 16.0209V26.3775C77.9126 26.5919 77.8931 26.7868 77.8346 26.9451C77.7762 27.1011 77.6787 27.2375 77.5228 27.3739C77.2694 27.6663 76.9162 27.8027 76.4679 27.8027C76.0196 27.8027 75.6664 27.6468 75.413 27.3544C75.1596 27.0621 75.0232 26.7283 75.0232 26.3775V16.0234C75.0232 14.5567 74.514 13.3069 73.4786 12.291C72.4432 11.2751 71.2129 10.7659 69.7852 10.7659C68.36 10.7659 67.1273 11.2751 66.0918 12.291C65.0759 13.3069 64.5667 14.5567 64.5667 16.0234V26.3799C64.5667 26.8087 64.4303 27.1425 64.1574 27.3764C63.8846 27.6687 63.5313 27.8051 63.1025 27.8051C62.9076 27.8051 62.7322 27.7857 62.5739 27.7272C62.418 27.6687 62.262 27.5518 62.1256 27.3764C61.8527 27.162 61.7163 26.8282 61.7163 26.3799V15.9064C61.7163 13.7187 62.5373 11.8427 64.1404 10.2592C65.724 8.6756 67.6194 7.89599 69.8266 7.89599H69.7852V7.89355Z" fill="white"/>
<path d="M95.9427 23.5051C95.9427 23.5245 95.9427 23.5245 95.9427 23.5245C95.9427 23.5245 95.9427 23.5245 95.9427 23.544C96.0401 23.6805 96.1181 23.8169 96.1571 23.9728C96.1961 24.1287 96.2156 24.3042 96.2156 24.521C96.1961 24.9693 96.0012 25.303 95.6479 25.4979L95.6674 25.4784C93.8694 26.9646 91.7986 27.7052 89.4354 27.7052C86.719 27.7052 84.3558 26.7672 82.4019 24.8133C80.4481 22.8594 79.4906 20.4963 79.4906 17.7798C79.4906 15.0244 80.4675 12.6807 82.4019 10.7658C84.3753 8.83143 86.719 7.85449 89.4354 7.85449C90.5683 7.85449 91.6622 8.04939 92.7171 8.42214C93.772 8.79245 94.7294 9.32112 95.6089 10.0057C95.7843 10.1421 95.9208 10.2981 96.0182 10.454C96.1157 10.6099 96.1741 10.8243 96.2131 11.0996C96.2131 11.275 96.1741 11.4504 96.1157 11.6283C96.0572 11.8037 95.9792 11.9596 95.8818 12.1155C95.7648 12.2519 95.6284 12.3689 95.492 12.4469C95.3556 12.5248 95.1801 12.5833 94.9633 12.6028H94.7684C94.4761 12.6028 94.1813 12.5053 93.8889 12.2909C93.2433 11.8037 92.5417 11.4114 91.7791 11.1386C91.0166 10.8657 90.254 10.7293 89.4744 10.7293C87.54 10.7293 85.8785 11.4139 84.4923 12.8001C83.106 14.1863 82.4214 15.8479 82.4214 17.7823C82.4214 19.7362 83.106 21.3977 84.4923 22.7644C85.859 24.1312 87.5205 24.8158 89.4744 24.8158C91.1749 24.8158 92.6586 24.2871 93.9303 23.2517C94.2032 23.0373 94.4785 22.9204 94.7709 22.9204H94.9658C95.375 22.9788 95.7088 23.1737 95.9622 23.5075H95.9427V23.5051Z" fill="white"/>
<path d="M109.888 24.8743C110.259 24.8938 110.592 25.0497 110.865 25.3225C111.158 25.5954 111.314 25.9292 111.314 26.3385C111.314 26.7673 111.158 27.1205 110.865 27.3934C110.573 27.6857 110.239 27.8027 109.849 27.8027H109.752C106.997 27.8027 104.614 26.8452 102.602 24.8718C100.609 22.8985 99.5148 20.5134 99.5148 17.7214V1.60307C99.5148 1.19378 99.6512 0.840519 99.9436 0.548167C100.275 0.236325 100.628 0.119385 100.998 0.119385C101.369 0.119385 101.722 0.255816 102.034 0.548167C102.326 0.879499 102.463 1.23276 102.463 1.60307V17.5094C102.463 18.5059 102.638 19.4244 102.991 20.2844C103.342 21.1444 103.851 21.9264 104.497 22.628L104.77 22.8619C104.867 22.9399 104.945 23.0178 105.004 23.0958C105.101 23.2127 105.199 23.2907 105.296 23.3492C105.316 23.3687 105.335 23.3882 105.335 23.4076C105.354 23.4271 105.413 23.4661 105.51 23.5246C105.569 23.5831 105.627 23.622 105.686 23.661L105.822 23.739L106.115 23.9144C106.212 23.9729 106.29 24.0313 106.348 24.0898C106.524 24.1483 106.699 24.2067 106.877 24.2652C107.053 24.3237 107.228 24.3821 107.406 24.4406L108.09 24.5965C108.305 24.655 108.519 24.7135 108.736 24.772L109.869 24.8499L109.888 24.8743Z" fill="white"/>
<path d="M131.537 26.358C131.537 26.7673 131.401 27.101 131.128 27.3739C130.836 27.6662 130.502 27.8027 130.112 27.8027C129.683 27.8027 129.33 27.6662 129.038 27.4129C128.784 27.1205 128.648 26.7673 128.648 26.358V24.8524C128.375 25.1057 128.061 25.381 127.71 25.6539C127.359 25.9267 127.045 26.1436 126.772 26.319C125.99 26.8087 125.169 27.179 124.309 27.4324C123.449 27.6857 122.55 27.8027 121.592 27.8027C118.837 27.8027 116.493 26.8257 114.539 24.8718C112.585 22.8985 111.628 20.5548 111.628 17.8383C111.628 15.1219 112.585 12.7782 114.539 10.8048C116.493 8.83148 118.837 7.87402 121.592 7.87402C124.348 7.87402 126.73 8.83148 128.665 10.8048C130.619 12.7782 131.576 15.1219 131.576 17.8383V26.3969L131.537 26.358ZM126.611 22.8424C127.997 21.4562 128.682 19.7947 128.682 17.8603C128.682 15.9259 127.997 14.2449 126.611 12.8196C125.244 11.4529 123.563 10.7683 121.59 10.7683C119.636 10.7683 117.955 11.4334 116.588 12.8196C115.183 14.2449 114.517 15.9454 114.517 17.8408C114.517 19.7557 115.183 21.4172 116.588 22.8424C117.975 24.2287 119.636 24.9133 121.59 24.9133C123.563 24.9133 125.244 24.2287 126.611 22.8424Z" fill="white"/>
<path d="M149.555 19.5582C149.887 20.1649 150.045 20.925 150.045 21.8629V22.2527C150.045 22.3892 150.045 22.5256 150.026 22.6426C149.987 23.0324 149.889 23.4246 149.714 23.8339C149.538 24.2432 149.304 24.6354 149.01 25.0057C148.267 25.9632 147.309 26.6867 146.157 27.174C145.004 27.6637 143.635 27.8976 142.054 27.8976C140.432 27.8976 138.948 27.5468 137.598 26.7842C136.933 26.4139 136.329 25.9632 135.781 25.4369C135.233 24.9083 134.784 24.3236 134.434 23.678H134.453C134.297 23.4441 134.219 23.1883 134.219 22.9349C134.219 22.8569 134.219 22.779 134.219 22.7205C134.219 22.662 134.239 22.5841 134.278 22.4866C134.336 22.3112 134.414 22.1553 134.511 22.0189C134.609 21.8824 134.765 21.7655 134.96 21.668L134.94 21.6875C135.174 21.5316 135.408 21.4537 135.644 21.4537C135.82 21.4537 135.976 21.4926 136.112 21.5511V21.5316C136.288 21.5901 136.443 21.6875 136.58 21.8045C136.716 21.9214 136.833 22.0578 136.931 22.2138C137.184 22.6231 137.479 22.9958 137.81 23.3466C138.142 23.6975 138.534 23.9922 138.982 24.2456C139.45 24.499 139.939 24.6939 140.427 24.8328C140.914 24.9692 141.443 25.0277 141.991 25.0277C143.046 25.0277 143.964 24.8717 144.746 24.5599C145.528 24.248 146.152 23.8168 146.603 23.2711C146.856 22.9398 146.992 22.6645 147.031 22.4501V22.3331C147.051 22.2357 147.07 22.1382 147.07 22.0408C147.07 21.9433 147.07 21.8654 147.07 21.8069C147.07 21.6315 147.07 21.4756 147.051 21.3391C147.031 21.2027 146.992 21.0858 146.934 20.9883C146.759 20.696 146.444 20.3427 145.957 20.0114C145.606 19.758 145.078 19.6021 144.432 19.4632C143.786 19.3268 143.026 19.2683 142.127 19.2683C140.897 19.2683 139.823 19.1514 138.904 18.9175C137.986 18.6836 137.243 18.3499 136.658 17.9211C136.21 17.5897 135.817 17.2365 135.486 16.8857C135.155 16.5348 134.899 16.1816 134.723 15.8308C134.47 15.3021 134.314 14.6004 134.353 13.7209L134.373 13.2118C134.392 12.8415 134.49 12.4492 134.665 12.0399C134.84 11.6306 135.074 11.2384 135.369 10.8486C136.112 9.89114 137.07 9.16757 138.222 8.68032C139.374 8.19063 140.743 7.93726 142.305 7.93726C143.36 7.93726 144.376 8.11267 145.353 8.46592C146.33 8.81675 147.209 9.30644 148.011 9.93256C148.186 10.069 148.323 10.2054 148.42 10.3418C148.518 10.4783 148.576 10.6927 148.596 10.9875C148.596 11.1824 148.576 11.3578 148.537 11.5161C148.498 11.672 148.42 11.8085 148.303 11.9449C148.167 12.1203 148.03 12.2373 147.874 12.3152C147.718 12.3932 147.504 12.4711 147.229 12.4711C146.878 12.4906 146.564 12.3737 146.31 12.1983C146.291 12.1983 146.271 12.1788 146.252 12.1593C145.138 11.2213 143.847 10.7536 142.383 10.7536C141.309 10.7536 140.39 10.9095 139.628 11.2213C138.865 11.5332 138.261 11.9644 137.791 12.5101V12.4906C137.537 12.822 137.401 13.0973 137.381 13.3117V13.5455C137.381 14.0547 137.401 14.386 137.459 14.542V14.503C137.615 14.7953 137.949 15.1291 138.456 15.4799C138.826 15.7138 139.335 15.9087 139.981 16.0476C140.626 16.184 141.387 16.262 142.247 16.262C143.457 16.262 144.532 16.3789 145.45 16.5933C146.369 16.8077 147.131 17.122 147.736 17.5313C148.145 17.8236 148.498 18.1379 148.81 18.4497C149.122 18.7616 149.378 19.0953 149.572 19.4267H149.553V19.5582H149.555Z" fill="white"/>
<path d="M167.231 19.5582C167.562 20.1649 167.72 20.925 167.72 21.8629V22.2527C167.72 22.3892 167.72 22.5256 167.701 22.6426C167.662 23.0324 167.564 23.4246 167.389 23.8339C167.214 24.2432 166.98 24.6354 166.685 25.0057C165.942 25.9632 164.984 26.6867 163.832 27.174C162.68 27.6637 161.31 27.8976 159.729 27.8976C158.107 27.8976 156.623 27.5468 155.273 26.7842C154.608 26.4139 154.004 25.9632 153.456 25.4369C152.908 24.9083 152.46 24.3236 152.109 23.678H152.128C151.972 23.4441 151.894 23.1883 151.894 22.9349C151.894 22.8569 151.894 22.779 151.894 22.7205C151.894 22.662 151.914 22.5841 151.953 22.4866C152.011 22.3112 152.089 22.1553 152.187 22.0189C152.284 21.8824 152.44 21.7655 152.635 21.668L152.615 21.6875C152.849 21.5316 153.083 21.4537 153.32 21.4537C153.495 21.4537 153.651 21.4926 153.787 21.5511V21.5316C153.963 21.5901 154.119 21.6875 154.255 21.8045C154.391 21.9214 154.508 22.0578 154.606 22.2138C154.859 22.6231 155.154 22.9958 155.485 23.3466C155.817 23.6975 156.209 23.9922 156.657 24.2456C157.125 24.499 157.615 24.6939 158.102 24.8328C158.589 24.9692 159.118 25.0277 159.666 25.0277C160.721 25.0277 161.639 24.8717 162.421 24.5599C163.203 24.248 163.827 23.8168 164.278 23.2711C164.531 22.9398 164.668 22.6645 164.707 22.4501V22.3331C164.726 22.2357 164.746 22.1382 164.746 22.0408C164.746 21.9433 164.746 21.8654 164.746 21.8069C164.746 21.6315 164.746 21.4756 164.726 21.3391C164.707 21.2027 164.668 21.0858 164.609 20.9883C164.434 20.696 164.119 20.3427 163.632 20.0114C163.281 19.758 162.753 19.6021 162.107 19.4632C161.462 19.3268 160.701 19.2683 159.802 19.2683C158.572 19.2683 157.498 19.1514 156.579 18.9175C155.661 18.6836 154.918 18.3499 154.333 17.9211C153.885 17.5897 153.492 17.2365 153.161 16.8857C152.83 16.5348 152.574 16.1816 152.399 15.8308C152.145 15.3021 151.989 14.6004 152.028 13.7209L152.048 13.2118C152.067 12.8415 152.165 12.4492 152.34 12.0399C152.516 11.6306 152.749 11.2384 153.044 10.8486C153.787 9.89114 154.745 9.16757 155.897 8.68032C157.049 8.19063 158.419 7.93726 159.98 7.93726C161.035 7.93726 162.051 8.11267 163.028 8.46592C164.005 8.81675 164.884 9.30644 165.686 9.93256C165.861 10.069 165.998 10.2054 166.095 10.3418C166.193 10.4783 166.251 10.6927 166.271 10.9875C166.271 11.1824 166.251 11.3578 166.212 11.5161C166.173 11.672 166.095 11.8085 165.978 11.9449C165.842 12.1203 165.705 12.2373 165.55 12.3152C165.394 12.3932 165.179 12.4711 164.904 12.4711C164.553 12.4906 164.239 12.3737 163.985 12.1983C163.966 12.1983 163.946 12.1788 163.927 12.1593C162.814 11.2213 161.522 10.7536 160.058 10.7536C158.984 10.7536 158.065 10.9095 157.303 11.2213C156.54 11.5332 155.936 11.9644 155.466 12.5101V12.4906C155.212 12.822 155.076 13.0973 155.057 13.3117V13.5455C155.057 14.0547 155.076 14.386 155.135 14.542V14.503C155.29 14.7953 155.624 15.1291 156.131 15.4799C156.501 15.7138 157.01 15.9087 157.656 16.0476C158.302 16.184 159.062 16.262 159.922 16.262C161.133 16.262 162.207 16.3789 163.125 16.5933C164.044 16.8077 164.807 17.122 165.411 17.5313C165.82 17.8236 166.173 18.1379 166.485 18.4497C166.797 18.7616 167.053 19.0953 167.248 19.4267H167.228V19.5582H167.231Z" fill="white"/>
<path d="M57.4188 3.05515C58.253 3.05515 58.9293 2.37888 58.9293 1.54466C58.9293 0.710447 58.253 0.0341797 57.4188 0.0341797C56.5846 0.0341797 55.9083 0.710447 55.9083 1.54466C55.9083 2.37888 56.5846 3.05515 57.4188 3.05515Z" fill="white"/>
<path fill-rule="evenodd" clip-rule="evenodd" d="M27.7539 14.1231C27.7539 21.7871 21.541 28 13.877 28C6.21293 28 0 21.7871 0 14.1231C0 6.45902 6.21293 0.246094 13.877 0.246094C21.541 0.246094 27.7539 6.45902 27.7539 14.1231ZM18.747 4.66059L19.1465 4.7215C19.3317 4.7483 19.4023 4.97487 19.2708 5.10399L17.9332 6.4147C17.8699 6.47561 17.7773 6.4951 17.6945 6.46343L17.5751 6.41714C17.2852 6.30264 16.9977 6.2466 16.7249 6.2466C16.0939 6.2466 15.6626 6.44638 15.4117 6.8581C15.2095 7.19187 14.9269 7.97148 14.749 9.79868L14.7198 10.091C14.7052 10.2226 14.8099 10.3371 14.9415 10.3371H17.4874C17.6872 10.3371 17.7871 10.5807 17.6433 10.722L16.4154 11.9158C16.374 11.9572 16.318 11.9791 16.2595 11.9791H14.7247C14.6077 11.9791 14.5127 12.0668 14.5005 12.1813L14.006 17.1245C13.8793 18.4279 13.6844 19.4 13.4091 20.0992C13.1289 20.813 12.6709 21.4611 12.0521 22.0263C11.1336 22.8644 10.0836 23.2907 8.93124 23.2907C8.67056 23.2907 8.36116 23.2274 7.98597 23.0982L7.66682 22.9886C7.50603 22.9326 7.46217 22.7255 7.58886 22.611L8.83379 21.4757C8.8947 21.4221 8.97753 21.405 9.05549 21.4294L9.16756 21.4659C9.51107 21.5805 9.82048 21.6365 10.0885 21.6365C10.4905 21.6365 11.7208 21.6365 11.9961 18.9615L12.1739 17.2658L12.6709 12.2252C12.6831 12.0936 12.5783 11.9791 12.4468 11.9791H11.4528C11.253 11.9791 11.1531 11.7404 11.292 11.5991L12.4638 10.4053C12.5077 10.3615 12.5637 10.3371 12.6246 10.3371H12.8634L12.8658 10.3225C13.0363 8.55618 13.5601 7.15046 14.4226 6.14671C15.3094 5.1113 16.469 4.58751 17.8699 4.58751C18.1306 4.58751 18.4254 4.61187 18.747 4.66059Z" fill="white"/>
</svg>
