<svg width="168" height="28" fill="none" xmlns="http://www.w3.org/2000/svg"><path d="M51.634 0c.331 0 .646.136.938.39.35.312.529.665.529 1.074 0 .41-.176.782-.529 1.094-.292.273-.607.41-.938.41-2.051 0-3.83.703-5.275 2.148-1.444 1.445-2.148 3.223-2.148 5.275v.078h5.764c.41 0 .762.136 1.055.428.273.293.41.646.41 1.036 0 .41-.137.762-.41 1.055a1.431 1.431 0 01-1.055.428H44.21v12.915c0 .448-.137.802-.41 1.055-.292.292-.645.41-1.074.41-.41 0-.762-.118-1.055-.41a1.45 1.45 0 01-.448-1.055v-16.23c0-1.425.35-2.736.88-3.928.528-1.19 1.288-2.265 2.285-3.242C46.416.977 48.839 0 51.653 0h-.019z" fill="url(#paint0_linear)"/><path d="M57.437 7.367c.429 0 .84.195 1.211.607.058.097.117.214.175.35.059.137.078.312.078.53V26.34c0 .214-.02.39-.078.528a1.501 1.501 0 01-.194.351c-.37.39-.763.587-1.172.587-.37 0-.705-.175-.997-.448-.312-.292-.468-.626-.468-1.035V8.83c0-.409.156-.723.468-1.016.292-.272.626-.448.997-.448h-.02z" fill="url(#paint1_linear)"/><path d="M69.786 7.894c2.227 0 4.142.801 5.745 2.402 1.584 1.583 2.383 3.498 2.383 5.725v10.357c0 .214-.02.409-.078.567a1.052 1.052 0 01-.312.429c-.253.292-.607.429-1.055.429-.448 0-.801-.156-1.055-.449-.253-.292-.39-.626-.39-.976V16.023c0-1.466-.509-2.716-1.544-3.732-1.036-1.016-2.266-1.525-3.694-1.525-1.425 0-2.657.51-3.693 1.525-1.016 1.016-1.525 2.266-1.525 3.732V26.38c0 .429-.136.762-.41.996-.272.293-.626.43-1.054.43-.195 0-.37-.02-.529-.079a1.053 1.053 0 01-.448-.35c-.273-.215-.41-.549-.41-.997V15.906c0-2.187.822-4.063 2.425-5.647 1.583-1.583 3.479-2.363 5.686-2.363h-.042v-.002z" fill="url(#paint2_linear)"/><path d="M96.22 23.505v.039c.097.136.175.273.214.429.04.156.059.331.059.548-.02.448-.215.782-.568.977l.02-.02c-1.798 1.487-3.87 2.227-6.232 2.227-2.717 0-5.08-.938-7.034-2.892-1.954-1.954-2.911-4.317-2.911-7.033 0-2.756.977-5.1 2.911-7.014 1.974-1.935 4.317-2.912 7.034-2.912 1.133 0 2.226.195 3.281.568 1.055.37 2.013.9 2.892 1.584.176.136.312.292.41.448.097.156.155.37.194.646 0 .175-.039.35-.097.528a2.241 2.241 0 01-.234.488 1.536 1.536 0 01-.39.33 1.292 1.292 0 01-.529.157h-.194c-.293 0-.588-.098-.88-.312a7.935 7.935 0 00-2.11-1.152 6.773 6.773 0 00-2.304-.41c-1.935 0-3.596.685-4.983 2.071-1.386 1.386-2.07 3.048-2.07 4.982 0 1.954.684 3.616 2.07 4.982 1.367 1.367 3.029 2.052 4.983 2.052 1.7 0 3.184-.529 4.456-1.564.272-.215.548-.332.84-.332h.195c.41.059.743.254.996.587h-.02v-.002z" fill="url(#paint3_linear)"/><path d="M110.166 24.874c.37.02.704.176.977.449.292.272.448.606.448 1.015 0 .43-.156.782-.448 1.055-.293.293-.626.41-1.016.41h-.098c-2.755 0-5.138-.958-7.15-2.931-1.993-1.974-3.087-4.359-3.087-7.15V1.602c0-.41.137-.762.429-1.055a1.477 1.477 0 011.055-.429c.37 0 .723.137 1.035.43.293.33.429.684.429 1.054V17.51c0 .997.176 1.915.529 2.775.351.86.86 1.642 1.505 2.344l.273.234c.098.078.176.156.234.234.098.117.195.195.292.253.02.02.039.04.039.059.02.02.078.058.176.117.058.058.117.097.175.136l.137.078.292.175c.098.059.175.117.234.176l.529.175.528.176.685.155.646.176 1.132.078.02.024z" fill="url(#paint4_linear)"/><path d="M131.815 26.358c0 .409-.137.743-.41 1.016a1.376 1.376 0 01-1.016.428c-.428 0-.782-.136-1.074-.39a1.57 1.57 0 01-.39-1.054v-1.506c-.273.253-.587.529-.938.802s-.665.49-.938.665c-.782.49-1.603.86-2.463 1.113-.86.254-1.759.37-2.716.37-2.756 0-5.099-.976-7.053-2.93-1.954-1.974-2.911-4.317-2.911-7.034 0-2.716.957-5.06 2.911-7.033 1.954-1.974 4.297-2.931 7.053-2.931 2.755 0 5.138.957 7.072 2.93 1.954 1.974 2.912 4.318 2.912 7.034v8.559l-.039-.04zm-4.926-3.516c1.386-1.386 2.07-3.048 2.07-4.982 0-1.934-.684-3.615-2.07-5.04-1.367-1.367-3.048-2.052-5.022-2.052-1.953 0-3.635.665-5.001 2.051-1.406 1.426-2.071 3.126-2.071 5.021 0 1.915.665 3.577 2.071 5.002 1.386 1.386 3.048 2.071 5.001 2.071 1.974 0 3.655-.685 5.022-2.07z" fill="url(#paint5_linear)"/><path d="M149.834 19.558c.331.607.49 1.367.49 2.305v.39c0 .136 0 .273-.02.39-.039.39-.136.782-.312 1.191-.175.41-.409.802-.704 1.172a6.997 6.997 0 01-2.852 2.168c-1.153.49-2.522.724-4.103.724-1.623 0-3.106-.351-4.456-1.114a8.82 8.82 0 01-1.818-1.347 7.235 7.235 0 01-1.347-1.759h.02a1.336 1.336 0 01-.234-.743v-.214a.67.67 0 01.058-.234c.059-.175.137-.331.234-.468a1.21 1.21 0 01.448-.35l-.019.019a1.26 1.26 0 01.704-.234c.175 0 .331.039.468.097v-.02c.175.06.331.157.468.274.136.117.253.253.35.409.254.41.549.782.88 1.133.331.35.723.645 1.172.899.467.253.957.448 1.444.587a5.824 5.824 0 001.564.195c1.055 0 1.974-.156 2.756-.468.782-.312 1.406-.743 1.856-1.289.254-.331.39-.606.429-.82v-.118c.02-.097.039-.194.039-.292v-.234c0-.175 0-.331-.019-.468a.949.949 0 00-.117-.35c-.176-.293-.49-.646-.977-.977-.351-.254-.88-.41-1.525-.549-.646-.136-1.406-.194-2.305-.194-1.23 0-2.305-.117-3.223-.351-.919-.234-1.662-.568-2.246-.997a8.796 8.796 0 01-1.172-1.035 4.481 4.481 0 01-.763-1.055c-.253-.529-.409-1.23-.37-2.11l.019-.509c.02-.37.117-.762.293-1.172a5.64 5.64 0 01.704-1.191c.743-.958 1.7-1.681 2.853-2.168 1.152-.49 2.521-.743 4.083-.743a8.9 8.9 0 013.048.528 9.49 9.49 0 012.657 1.467c.176.136.312.273.41.41.097.136.156.35.175.645a2.2 2.2 0 01-.058.528 1.037 1.037 0 01-.234.43 1.254 1.254 0 01-.429.37 1.42 1.42 0 01-.646.155c-.35.02-.665-.097-.918-.273-.02 0-.039-.019-.058-.039-1.114-.937-2.405-1.405-3.869-1.405-1.075 0-1.993.156-2.756.468-.762.311-1.366.743-1.837 1.288v-.02c-.253.332-.389.607-.409.822v.234c0 .509.02.84.078.996v-.039c.156.293.49.626.996.977.371.234.88.429 1.526.568a11.03 11.03 0 002.265.214c1.211 0 2.286.117 3.204.331.918.215 1.681.53 2.285.939.41.292.763.606 1.075.918.311.312.567.646.762.977h-.019v.131h.002z" fill="url(#paint6_linear)"/><path d="M167.51 19.558c.331.607.49 1.367.49 2.305v.39c0 .136 0 .273-.02.39-.039.39-.136.782-.312 1.191-.175.41-.409.802-.704 1.172-.743.957-1.7 1.681-2.853 2.168-1.152.49-2.521.724-4.102.724-1.623 0-3.107-.351-4.456-1.114a8.793 8.793 0 01-1.818-1.347 7.235 7.235 0 01-1.347-1.759h.019a1.343 1.343 0 01-.233-.743v-.214a.67.67 0 01.058-.234c.059-.175.136-.331.234-.468.097-.136.253-.253.448-.35l-.019.019c.234-.156.467-.234.704-.234.175 0 .331.039.468.097v-.02c.175.06.331.157.467.274.137.117.254.253.351.409.254.41.548.782.88 1.133.331.35.723.645 1.171.899a7.21 7.21 0 001.445.587 5.819 5.819 0 001.564.195c1.055 0 1.974-.156 2.756-.468.782-.312 1.405-.743 1.856-1.289.253-.331.39-.606.429-.82v-.118c.019-.097.039-.194.039-.292v-.234c0-.175 0-.331-.02-.468a.914.914 0 00-.117-.35c-.175-.293-.489-.646-.976-.977-.351-.254-.88-.41-1.526-.549-.645-.136-1.405-.194-2.304-.194-1.231 0-2.305-.117-3.223-.351-.919-.234-1.662-.568-2.247-.997a8.924 8.924 0 01-1.172-1.035 4.475 4.475 0 01-.762-1.055c-.253-.529-.409-1.23-.37-2.11l.019-.509c.02-.37.117-.762.292-1.172.176-.41.41-.801.705-1.191.743-.958 1.7-1.681 2.852-2.168 1.153-.49 2.522-.743 4.084-.743 1.054 0 2.07.175 3.047.528.977.351 1.857.84 2.658 1.467.176.136.312.273.41.41.097.136.155.35.175.645 0 .195-.02.37-.058.528a1.037 1.037 0 01-.234.43 1.254 1.254 0 01-.429.37 1.42 1.42 0 01-.646.155 1.463 1.463 0 01-.918-.273c-.02 0-.039-.019-.059-.039-1.113-.937-2.404-1.405-3.868-1.405-1.075 0-1.993.156-2.756.468-.762.311-1.367.743-1.837 1.288v-.02c-.253.332-.39.607-.409.822v.234c0 .509.019.84.078.996v-.039c.156.293.49.626.996.977.371.234.88.429 1.525.568.646.136 1.406.214 2.266.214 1.211 0 2.285.117 3.204.331.918.215 1.681.53 2.285.939.409.292.763.606 1.074.918.312.312.568.646.763.977h-.02v.131h.003z" fill="url(#paint7_linear)"/><path d="M57.42 3.055a1.51 1.51 0 100-3.02 1.51 1.51 0 000 3.02z" fill="url(#paint8_linear)"/><path fill-rule="evenodd" clip-rule="evenodd" d="M28 14c0 7.732-6.268 14-14 14S0 21.732 0 14 6.268 0 14 0s14 6.268 14 14zm-9.087-9.546l.403.061a.226.226 0 01.126.386l-1.35 1.322a.229.229 0 01-.24.05l-.121-.047a2.34 2.34 0 00-.858-.172c-.637 0-1.072.201-1.325.617-.204.336-.489 1.123-.668 2.966l-.03.295a.225.225 0 00.224.248h2.568c.202 0 .303.246.158.389l-1.239 1.204a.221.221 0 01-.157.064h-1.549a.227.227 0 00-.226.204l-.499 4.987c-.128 1.315-.324 2.296-.602 3.001-.283.72-.745 1.374-1.37 1.944-.926.846-1.985 1.276-3.148 1.276-.263 0-.575-.064-.953-.194l-.322-.11a.226.226 0 01-.079-.382l1.256-1.145a.231.231 0 01.224-.047l.113.037a3 3 0 00.929.172c.405 0 1.647 0 1.924-2.699l.18-1.71.501-5.086a.228.228 0 00-.226-.248h-1.003a.225.225 0 01-.162-.383l1.182-1.205a.227.227 0 01.162-.069h.241l.003-.014c.172-1.782.7-3.2 1.57-4.213.895-1.045 2.065-1.573 3.478-1.573.263 0 .56.024.885.074z" fill="url(#paint9_linear)"/><defs><linearGradient id="paint0_linear" x1="47.158" y1="34.442" x2="47.158" y2="-1.502" gradientUnits="userSpaceOnUse"><stop stop-color="#0093DC"/><stop offset="1" stop-color="#00E7F9"/></linearGradient><linearGradient id="paint1_linear" x1="57.446" y1="34.442" x2="57.446" y2="-1.502" gradientUnits="userSpaceOnUse"><stop stop-color="#0093DC"/><stop offset="1" stop-color="#00E7F9"/></linearGradient><linearGradient id="paint2_linear" x1="69.815" y1="34.442" x2="69.815" y2="-1.502" gradientUnits="userSpaceOnUse"><stop stop-color="#0093DC"/><stop offset="1" stop-color="#00E7F9"/></linearGradient><linearGradient id="paint3_linear" x1="88.13" y1="34.442" x2="88.13" y2="-1.502" gradientUnits="userSpaceOnUse"><stop stop-color="#0093DC"/><stop offset="1" stop-color="#00E7F9"/></linearGradient><linearGradient id="paint4_linear" x1="105.691" y1="34.442" x2="105.691" y2="-1.502" gradientUnits="userSpaceOnUse"><stop stop-color="#0093DC"/><stop offset="1" stop-color="#00E7F9"/></linearGradient><linearGradient id="paint5_linear" x1="121.878" y1="34.442" x2="121.878" y2="-1.502" gradientUnits="userSpaceOnUse"><stop stop-color="#0093DC"/><stop offset="1" stop-color="#00E7F9"/></linearGradient><linearGradient id="paint6_linear" x1="142.409" y1="34.442" x2="142.409" y2="-1.502" gradientUnits="userSpaceOnUse"><stop stop-color="#0093DC"/><stop offset="1" stop-color="#00E7F9"/></linearGradient><linearGradient id="paint7_linear" x1="160.084" y1="34.442" x2="160.084" y2="-1.502" gradientUnits="userSpaceOnUse"><stop stop-color="#0093DC"/><stop offset="1" stop-color="#00E7F9"/></linearGradient><linearGradient id="paint8_linear" x1="57.419" y1="34.442" x2="57.419" y2="-1.502" gradientUnits="userSpaceOnUse"><stop stop-color="#0093DC"/><stop offset="1" stop-color="#00E7F9"/></linearGradient><linearGradient id="paint9_linear" x1="14" y1="27.999" x2="14" y2="-.001" gradientUnits="userSpaceOnUse"><stop stop-color="#0093DC"/><stop offset="1" stop-color="#00E7F9"/></linearGradient></defs></svg>