<svg width="28" height="26" fill="none" xmlns="http://www.w3.org/2000/svg"><path clip-rule="evenodd" d="M10.937 2.46L2.705 7.033c-1.73.962-1.73 3.45 0 4.411l8.232 4.573a6.31 6.31 0 006.126 0l8.232-4.573c1.73-.961 1.73-3.45 0-4.41L17.063 2.46a6.31 6.31 0 00-6.126 0z" stroke="#00E7F9" stroke-width="1.5" stroke-linecap="round" stroke-linejoin="round"/><path d="M5.985 13.267v5.232c0 1.265.634 2.445 1.686 3.145l2.142 1.425a7.555 7.555 0 008.367 0l2.143-1.425a3.776 3.776 0 001.685-3.145v-5.232" stroke="url(#paint0_linear)" stroke-width="1.5" stroke-linecap="round" stroke-linejoin="round"/><defs><linearGradient id="paint0_linear" x1="12.928" y1="25.348" x2="12.714" y2="10.352" gradientUnits="userSpaceOnUse"><stop stop-color="#00E7F9"/><stop offset="1" stop-color="#00E7F9" stop-opacity="0"/></linearGradient></defs></svg>