<svg width="32" height="32" fill="none" xmlns="http://www.w3.org/2000/svg"><path d="M25.334 6.667h1.333a2.666 2.666 0 012.667 2.666v16A2.666 2.666 0 0126.667 28H5.334a2.666 2.666 0 01-2.667-2.667v-16a2.666 2.666 0 012.667-2.666h1.333" stroke="url(#paint0_linear)" stroke-width="1.5" stroke-linecap="round" stroke-linejoin="round"/><path clip-rule="evenodd" d="M16 8a4 4 0 00-4-4H8c-.736 0-1.333.597-1.333 1.333v17.334C6.667 23.403 7.264 24 8 24h4a4 4 0 014 4 4 4 0 014-4h4c.736 0 1.334-.597 1.334-1.333V5.333C25.334 4.597 24.736 4 24 4h-4a4 4 0 00-4 4z" stroke="#00E7F9" stroke-width="1.5" stroke-linecap="round" stroke-linejoin="round"/><path d="M16 8v20" stroke="#00E7F9" stroke-width="1.5" stroke-linecap="round" stroke-linejoin="round"/><defs><linearGradient id="paint0_linear" x1="18.352" y1="33.993" x2="21.773" y2="7.836" gradientUnits="userSpaceOnUse"><stop stop-color="#00E7F9" stop-opacity="0"/><stop offset="1" stop-color="#00E7F9"/></linearGradient></defs></svg>